/* XPM */
static char *bc876712cc114549c2a7d4e4cbdd4677GYU6vraJ9DH1qoTc[] = {
/* columns rows colors chars-per-pixel */
"50 50 86 1 ",
"  c #4D4C4A",
". c #676666",
"X c #696867",
"o c #6D6C6D",
"O c #706D6D",
"+ c #747374",
"@ c #797778",
"# c #7D7B7C",
"$ c #807E7F",
"% c #817F80",
"& c #848384",
"* c #878788",
"= c #888788",
"- c #8C8B8D",
"; c #8F8E90",
": c #908F91",
"> c #949395",
", c #979698",
"< c #989799",
"1 c #979899",
"2 c #9B9B9D",
"3 c #9F9FA0",
"4 c #A09FA1",
"5 c #9FA0A1",
"6 c #A3A3A4",
"7 c #A6A6A8",
"8 c #A8A7A9",
"9 c #A7A8A9",
"0 c #ABABAC",
"q c #AEAEB0",
"w c #B0AFB1",
"e c #AFB0B1",
"r c #B1B2B3",
"t c #B3B2B3",
"y c #B2B2B4",
"u c #B3B3B4",
"i c #B3B3B5",
"p c #B3B4B6",
"a c #B5B5B7",
"s c #B5B6B7",
"d c #B6B6B8",
"f c #B7B6B8",
"g c #B6B7B9",
"h c #B7B8B9",
"j c #B8B8BA",
"k c #B9B8BA",
"l c #B9BABB",
"z c #BBBABB",
"x c #BBBBBC",
"c c #BBBCBD",
"v c #BCBCBE",
"b c #BEBEBF",
"n c #BEBEC0",
"m c #BFBEC0",
"M c #C0BFC1",
"N c #BFC0C1",
"B c #C2C1C2",
"V c #C2C1C3",
"C c #C2C2C4",
"Z c #C3C4C5",
"A c #C4C4C6",
"S c #C7C6C7",
"D c #C6C6C8",
"F c #C7C7C8",
"G c #C7C8C9",
"H c #C8C8CA",
"J c #C9C9CB",
"K c #CACACC",
"L c #CBCBCD",
"P c #CBCCCD",
"I c #CCCCCD",
"U c #CFCED0",
"Y c #CFCFD0",
"T c #D0CFD1",
"R c #D1D1D2",
"E c #D2D2D3",
"W c #D6D6D7",
"Q c #D7D7D8",
"! c #D8D7D9",
"~ c #DADADB",
"^ c #DBDBDC",
"/ c #DFDFE0",
"( c #E1E1E1",
") c #E2E2E3",
"_ c #EBEBEC",
"` c #F4F4F4",
/* pixels */
"q62^1#y23qC6<730;;366,n826762dDn672yx20Zdqq772s0BI",
"8,5J7-y62qdq4532;&&062k6678-15Jx60y6637Hkq77r0sfsS",
"8+6s3606>xJ66373>#@q6866206&,sBJ6>0770nbxy460skl0n",
"6-2r6006,6n79662;*-667632091>dbN32,6n7d0yq828rWl,0",
"11256632:,S0632:-0:*04q6760020y63q,0x638yy016b~k-8",
"00>66075;>ny613=4d<#2y065603768,>dCk>rB3qe26ebDrn0",
"Z02600e6:15e333&wD2@3Be639636,b3,0Bd9r038026sc,DsJ",
"x63DN&27>6,2370>,ny:6CJ03q6241bq1-Br8626606=hk,ZyJ",
"r0,SE&20252,26p33>77yqxqyk-B20y003q778697730ddq3bS",
"0d62936y031,>w6:23>3dq6dsn6x2q76600y790606y70xqpdr",
"B108123076,-4C8%>3>qpr7e60e8223596qh978sy3q&6nn77x",
"b,606,200,->wI0#68-xydx32y21bs,;6y7d06dC64>-6nx00s",
"073s0<67y3>k>762dh2YnEd000%-dQ;,6xdqdsqy-,,r0yqdd0",
"672eyry-060n32&r0),6~YJ0303>JM>26NDdxM60,36d7;7SD8",
"626720d;6>6y02*05)2k_0qd7qrq9;676YJyMb3y6<6q6-bs07",
"1-#403q733237>408k0kTy0640e720yyxBq<MZn22y3762d>23",
"61%%q7qq22-,7677rr8<80r078,0snGrC066sDE2&J76qe6.,3",
"7r%O6q6892#,69qr6=2r86627>,d!Pdhd60kkbJq626hy0>.16",
"62%#q663r2&-,6Bq6+-S822r6>2nQSnbd6,7Bdnhq10k672X<6",
">*&>013y8y,=@8sr6@6p0-0E280sCBW~<>,3SxnB7033,-2>>2",
"2*>62,7q636-+6d2127b112Z86668W)^2677xxE92292@*65y0",
">=62->2762>=#6d3>160r6=7r6y=0^!_B6r0ys026q0>.&566y",
",22,>*#,622-:q8,21>6B61-q20:4TJB`I0y-300qk0; &3566",
",3236&+>7236263,72#6J82>d1630ZsdT`C2&req0921X*2366",
",2222*@67236472343;2xq:68621080xdE)0>eyr08<1210659",
"d12,,->y43416q223<307662,6w648nk0JTDy6ddrr666y8r09",
"b7743660266,yY022@20,686,64,6qIS06DMd70d00006s7y6q",
"rq,3q006640,6D032o2y644q-2>>6qYB,0xx770qkq6666kb67",
"b8>,8dy763k-0s03>&28041213226pPe278b06r9rrr6==b)2,",
"r666*7y6635<20866362332433872cr176t600rr06yk>&B)*6",
"q786>-w666266<-177346226q1>Ex77<72b0r6ps066Z>r~c#0",
"O,y6;=qw666qr,=*721236677>-bY276368s6n6lh20kryk->+",
"*0d66$2rq12r01>&7>,263dy26>Cb266726d0B7x2220E0q-0-",
"7yy78#-s0,26r1->6,222377300r8866760dbB82=7>d)kJ,:8",
"9yy081,e876,w,,26>>>,2573yy6q766070ywfw=,60n/Bb6:3",
"SIh6,>00871621666>>>>,036qn:70B6d0708yw#300nEqJb0y",
"^^q62%80620s1+662,,,2<62063-qsBk97r20i8*200hErBnxJ",
"nhy84&8qw6bd2+,632166,>66<6-78bd>*s06by8>yqSGrexn0",
"Mwqq7&80844s1>6-<2xy,-*1260,2wM0,-sr60r00dsYbs0dne",
"dJny23772238276,>qd033;-;0q660y66672888wdMny60<7dJ",
"1=By>0pe6676>26>xZy8223-*6006000261766qwdCn33:,8dC",
"2@1B66yy367822,7JDq*>q7>%>2ne06068266qdrdBn4&-60qx",
"6-#rb21p276672;2PCx=#n0,%-1C077790129xdyyxC1+67yky",
"0=*hc0-66866232-xBxq377>=26r8e00630,0e0ehdC7+37dC0",
"0&*by009>;57,2>1bBsy062=60q89qq>8q82608rydB0$>80yw",
"4>>0c6Z02+071<226drrq62=4d72E6r2r06880800xs7<>60wy",
"1,rry9db>-e6,376720yqq47006d~2by76y00q20yddq713dxr",
"r080y67S;,67-8030666qn63060sekSS07>s4q86bnyyq060JC",
"r06028673>r6*r2-2276>666060B0Mkfd&*rrxq6qBx0y00JJd",
"k60p<81663k5>022*>722>6r868s0B6rn%>qI0308xs78qqJCy"
};
