/* XPM */
static char *_d30149402dc430ee0ffdfd1f3dfafc1ADufHd3iNKbRcJ93[] = {
/* columns rows colors chars-per-pixel */
"50 50 156 2 ",
"   c None",
".  c #161924",
"X  c #181D28",
"o  c #180E3D",
"O  c #08173B",
"+  c #1F2A2E",
"@  c #172B3F",
"#  c #142532",
"$  c #202E34",
"%  c #25363B",
"&  c #770037",
"*  c #0B4F3B",
"=  c #1F6437",
"-  c #171E42",
";  c #1D1E40",
":  c #002542",
">  c #002941",
",  c #152542",
"<  c #192642",
"1  c #1C2B45",
"2  c #003347",
"3  c #003D4A",
"4  c #1F3544",
"5  c #1F344A",
"6  c #202F47",
"7  c #243746",
"8  c #2A3D42",
"9  c #23334A",
"0  c #2D3649",
"q  c #263C4C",
"w  c #293E4C",
"e  c #473A48",
"r  c #782948",
"t  c #1B4251",
"y  c #244446",
"u  c #2C4445",
"i  c #2C454B",
"p  c #2F494A",
"a  c #304A47",
"s  c #34464D",
"d  c #38434D",
"f  c #314C4C",
"g  c #34514E",
"h  c #2A4450",
"j  c #364150",
"k  c #334C54",
"l  c #374B58",
"z  c #355250",
"x  c #385854",
"c  c #3D5C5D",
"v  c #3F6445",
"b  c #3F7045",
"n  c #3D625B",
"m  c #366766",
"M  c #3A6F6A",
"N  c #475B52",
"B  c #4C5C55",
"V  c #41525A",
"C  c #4D5E58",
"Z  c #475758",
"A  c #515E5A",
"S  c #63535C",
"D  c #417543",
"F  c #437D4C",
"G  c #4D6357",
"H  c #4A6953",
"J  c #46645B",
"K  c #49635E",
"L  c #4F6E5A",
"P  c #52635D",
"I  c #526E5E",
"U  c #4A7155",
"Y  c #4A7953",
"T  c #437258",
"R  c #4E7A5A",
"E  c #4C745E",
"W  c #51725E",
"Q  c #435C64",
"!  c #466364",
"~  c #4C6868",
"^  c #556761",
"/  c #556C63",
"(  c #596C66",
")  c #526F6D",
"_  c #596E69",
"`  c #547263",
"'  c #597366",
"]  c #547C63",
"[  c #55726A",
"{  c #5C756C",
"}  c #577868",
"|  c #5C7B6C",
" . c #597774",
".. c #5E7C73",
"X. c #557371",
"o. c #6E6666",
"O. c #60776E",
"+. c #617C6E",
"@. c #627771",
"#. c #6F7570",
"$. c #627C73",
"%. c #667F78",
"&. c #801E44",
"*. c #822547",
"=. c #8C2B4C",
"-. c #AD234F",
";. c #DE1F5B",
":. c #E4125B",
">. c #D22D5A",
",. c #E7235E",
"<. c #E0285D",
"1. c #EE1E60",
"2. c #F42D65",
"3. c #9F4659",
"4. c #4A8054",
"5. c #568864",
"6. c #5C836C",
"7. c #5D896D",
"8. c #51856C",
"9. c #498276",
"0. c #5A8372",
"q. c #5F8873",
"w. c #5F817A",
"e. c #5F9170",
"r. c #638274",
"t. c #638B74",
"y. c #668479",
"u. c #69847C",
"i. c #668B79",
"p. c #698A7D",
"a. c #66957A",
"s. c #69937D",
"d. c #678C80",
"f. c #6C8B81",
"g. c #6D9482",
"h. c #6E9A84",
"j. c #719685",
"k. c #729C87",
"l. c #729588",
"z. c #759D8C",
"x. c #789F8E",
"c. c #70A286",
"v. c #76A38E",
"b. c #7AA18E",
"n. c #7BA494",
"m. c #7EAB97",
"M. c #7FAA98",
"N. c #80A598",
"B. c #81AD9A",
"V. c #A3ACAA",
"C. c #ACB2AD",
"Z. c #B2BCB6",
"A. c #BCC5C1",
"S. c #CED2D1",
"D. c #DDDFDD",
"F. c #F6F5F7",
/* pixels */
"                                                                                                    ",
"                                                                                                    ",
"                                                                                                    ",
"                                                                                                    ",
"                                                                                                    ",
"                        { B                                                                         ",
"                      (   @.                                                                        ",
"                        B @.@.                                                                      ",
"                        ^ i.q.            $.|                                                       ",
"                            j.          u.|   ..u.    (                         f.i.]               ",
"                              |         _       |     | P     I ` P         ` z.z.t.z.n.            ",
"                                $.      A     y.W     5.      '           @.g.k.p.r.$.g.m.          ",
"                                  r.        y.z.    6.6.                  t.6.u.    {   p.b.|       ",
"                                  p.j.      7.t._ { y.O.      W         p.z.(       /     0.| / {   ",
"                                    s.s. .{ q. .c Q c M M 0.` '       g.k.$.              { y.    ^ ",
"                  W %.u.| | f.|       r...l k 1 < o > & =.S #.J   | z.h.v                   { $.    ",
"              W $.      O.{ u.} j.u.  [ 9 < 9 9 w w 0 <.2.:.>.o.T s.v.6.                      | {   ",
"          ` O.      g.z.j.r.O.  r.i.d.i < 5 , 1 ; t e ,.2.>.1.3.9.b.6.                    /   @.^   ",
"        $.{       z.g.    y.@.O.  | ) , q h h % i 0 3 -.2.2.2.r m $.                  C       { G   ",
"        {       s.s.y.      y._   ..c 5 z u f p p p 7 : &.-.&.3 j r.t.` | u.  f.U p.p.(       /     ",
"        / $.| s.|     [     [     [ k k p p k 8 % p u s : 3 2 9 ~ u.6.} | g.h.B.k.|                 ",
"            }                     y.w h g u u . i i u 8 d d 0 Z [               W [                 ",
"                            d.p.g.] q 1 u p X i p i $ k f x m K                     ( O.            ",
"                    | R z.n.h.Y R Y g h 9 8 u i 8 u u z z z Z                           `           ",
"                  p.j.5.7.x.t.D s.g.8.l 1 q z + g p u a u n `                                       ",
"                r.7.a.n.| {   _ [ ' A.r.y 9 O < 4 y # i 7 ! {                                       ",
"              $.t.g.l.{         * D.S.= b ] r.) Q X. .y.d.$.t.|                                     ",
"              r.g.i.            Z.F.] F a.i.$.u.p.p.r.p./ [ t.z.                                    ",
"            y.s.i.              C.V.0.k.d.            6.|     $.g.%.                                ",
"  { O.$.r.g.h.t.{               J E g.u.                | |       l.%.                              ",
"  N G ^ i.z.l.'               _ p.k.|                       r.|     r.|                             ",
"        6.H @.u.            ^ | v.y.  |                       p.      r.y.                          ",
"      r.y.    {           Z u.a.I       t.I                   6.        r.j.`                       ",
"    @.k.                  I n.%.        U s.                  @.          r.M.f.                    ",
"    y.k.                @.k.'           ' u.$.              ` B             p.n.z.6.                ",
"    r.|               | c.f.          ^   | }             G '                 p.p.g.M.$.`           ",
"      %.            ' B.t.                [                                   y.r.  @.+.y./         ",
"                  ' e.z.                  ^                                     r.                  ",
"                r.k.a.%.                P                                       | [                 ",
"              $.v.j.$.                                                                              ",
"        _   G @.  @.                                                                                ",
"            (                                                                                       ",
"        {  .    $.                                                                                  ",
"              f.r.                                                                                  ",
"            { N.                                                                                    ",
"                                                                                                    ",
"                                                                                                    ",
"                                                                                                    ",
"                                                                                                    ",
"                                                                                                    "
};
