/* XPM */
static char *result[] = {
/* columns rows colors chars-per-pixel */
"50 50 215 2 ",
"   c #1D361D",
".  c #032A03",
"X  c #024D02",
"o  c #004100",
"O  c #015301",
"+  c #015D01",
"@  c #0B570B",
"#  c #0A590B",
"$  c #185E18",
"%  c #016301",
"&  c #026C02",
"*  c #0E680E",
"=  c #027203",
"-  c #027C02",
";  c #0B7C0D",
":  c #0A700B",
">  c #0F6E10",
",  c #106D11",
"<  c #1E651E",
"1  c #177917",
"2  c #255823",
"3  c #2A7928",
"4  c #327D31",
"5  c #286F28",
"6  c #038403",
"7  c #058E05",
"8  c #0B8A0C",
"9  c #0D850D",
"0  c #029302",
"q  c #029B02",
"w  c #09920B",
"e  c #0F8110",
"r  c #148414",
"t  c #19801A",
"y  c #129112",
"u  c #159D15",
"i  c #1A961A",
"p  c #01A501",
"a  c #01AB02",
"s  c #0CA40C",
"d  c #0EAB0E",
"f  c #08A506",
"g  c #01B401",
"h  c #02BB02",
"j  c #0CB40C",
"k  c #0DBD0D",
"l  c #12AE11",
"z  c #1AA61B",
"x  c #15A715",
"c  c #0FB010",
"v  c #12B513",
"b  c #11BB11",
"n  c #1BB41C",
"m  c #1CBE1B",
"M  c #319730",
"N  c #2CA22D",
"B  c #2DBC2D",
"V  c #26B826",
"C  c #3CAD3B",
"Z  c #39B839",
"A  c #01C301",
"S  c #01CC01",
"D  c #0AC20A",
"F  c #0CCB0C",
"G  c #08CD07",
"H  c #01D302",
"J  c #01DC01",
"K  c #07DA08",
"L  c #0ADD0A",
"P  c #0CD70B",
"I  c #13C513",
"U  c #14CA15",
"Y  c #1ECA1D",
"T  c #0CDA11",
"R  c #13D314",
"E  c #14DE15",
"W  c #1FD21F",
"Q  c #01E402",
"!  c #01EC01",
"~  c #08E809",
"^  c #01F401",
"/  c #01FE01",
"(  c #07FE08",
")  c #0BFD0B",
"_  c #09F709",
"`  c #1BE41B",
"'  c #19EC19",
"]  c #0FFF10",
"[  c #0FF110",
"{  c #14F314",
"}  c #13FE13",
"|  c #18FC17",
" . c #1AF219",
".. c #1BFE1B",
"X. c #17FA19",
"o. c #28C728",
"O. c #30C02F",
"+. c #23DA23",
"@. c #2BD42B",
"#. c #2CDC2C",
"$. c #21D620",
"%. c #33C333",
"&. c #35CD35",
"*. c #3CCE3C",
"=. c #3BC23B",
"-. c #33D532",
";. c #34DD34",
":. c #38DA37",
">. c #3BD53B",
",. c #3CDC3B",
"<. c #1FE521",
"1. c #1EFE20",
"2. c #22EC22",
"3. c #2DEC2E",
"4. c #2CE52C",
"5. c #31ED2F",
"6. c #30E42F",
"7. c #23F423",
"8. c #23FE23",
"9. c #2AF22A",
"0. c #2CFE2C",
"q. c #27FE29",
"w. c #33E433",
"e. c #35EA35",
"r. c #3AE43A",
"t. c #3DED3D",
"y. c #37E138",
"u. c #2FFF32",
"i. c #33FE32",
"p. c #3DFD3D",
"a. c #40E23F",
"s. c #4E8B4D",
"d. c #41AC41",
"f. c #4FBC4E",
"g. c #5FA45E",
"h. c #57BE56",
"j. c #6BBA6C",
"k. c #7BAF7B",
"l. c #6FAD70",
"z. c #3FF340",
"x. c #43D244",
"c. c #42DC42",
"v. c #4AD44A",
"b. c #4ADD4A",
"n. c #5DC45D",
"m. c #5AD25A",
"M. c #60DA5E",
"N. c #41E341",
"B. c #43EC44",
"V. c #4BEF4C",
"C. c #43FE44",
"Z. c #4CFE4C",
"A. c #44F745",
"S. c #51ED50",
"D. c #52FE52",
"F. c #5CFF5C",
"G. c #56FA56",
"H. c #63C264",
"J. c #6BC46B",
"K. c #70C26F",
"L. c #6DD86D",
"P. c #70DE6F",
"I. c #67E767",
"U. c #64FF63",
"Y. c #6DFF6C",
"T. c #70F76F",
"R. c #78E178",
"E. c #73FE73",
"W. c #7BFE7B",
"Q. c #80A47F",
"!. c #80E97F",
"~. c #7EFF80",
"^. c #8DB48D",
"/. c #95B895",
"(. c #89A189",
"). c #A1ADA0",
"_. c #A0BEA0",
"`. c #86D387",
"'. c #97C996",
"]. c #8FD290",
"[. c #97D797",
"{. c #81FE81",
"}. c #8BFE8B",
"|. c #82F182",
" X c #90F88F",
".X c #99E799",
"XX c #93FE93",
"oX c #9CFD9C",
"OX c #97F597",
"+X c #A5C3A5",
"@X c #AAD6AA",
"#X c #B6D8B5",
"$X c #9FFEA0",
"%X c #A6EBA6",
"&X c #ADEFAC",
"*X c #A7EEA8",
"=X c #A6F1A6",
"-X c #A3FDA4",
";X c #ADFEAC",
":X c #AAF7AA",
">X c #B8EDB8",
",X c #B6FDB5",
"<X c #BCFFBC",
"1X c #B5F8B7",
"2X c #CED1CF",
"3X c #C2F7C3",
"4X c #D1F6CF",
"5X c #DCF7DB",
"6X c #DAFDDA",
"7X c #D5FAD5",
"8X c #D3E6D3",
"9X c #E2FDE2",
"0X c #E5F2E5",
"qX c #F5FFF4",
"wX c None",
/* pixels */
"wXwXwXwXwXwXwXwXwXwXwXwXwXwXwXwXwXwXwXwXwXwXwXwXwXwXwXwXwXwXwXwXwXwXwXwXwXwXwXwXwXwXwXwXwXwXwXwXwXwX",
"wXwXwXwXwXwXwXwXwXwXwXwXwXwXwXwXwXwXwXwXwXwXwX-XF.;XwXwXwXwXwXwXwXwXwXwXwXwXwXwXwXwXwXwXwXwXwXwXwXwX",
"wXwXwXwXwXwXwXwXwXwXwXwXwXwXwXwXwXwXwX+Xg.S.D.0./ C.G.D.D.C.}.wXwXwXwXwXwXwXwXwXwXwXwXwXwXwXwXwXwXwX",
"wXwXwXwXwXwXwXwXwXwXwXwXwXwXwXwXwXwXk.o.^ / Z.U./ J H ! / H ^ E.;XwXwXwXwXwXwXwXwXwXwXwXwXwXwXwXwXwX",
"wXwXwXwXwXwXwXwXwXwXwXwXwXwXwXwX/.h.J ) oX0.L./.h v , 8 ) v K / i.{.wXwXwXwXwXwXwXwXwXwXwXwXwXwXwXwX",
"wXwXwXwXwXwXwXwXwXwXwXwXwXwX+Xl.H / Y.-X}.=.- - D / ^ h a ^ ( ) / / D.XXwXwXwXwXwXwXwXwXwXwXwXwXwXwX",
"wXwXwXwXwXwXwXwXwXwXwXwXwX^.%.! / ,X;XZ.^ - v ` q J } ' . 6 J / / 1./ U.wXwXwXwXwXwXwXwXwXwXwXwXwXwX",
"wXwXwXwXwXwXwXwXoX}.wXwX;XG./ q./ 1XXX! 5 L / / ! y A J N X a ^ / / ) ) C.D.-XwXwXwXwXwXwXwXwXwXwXwX",
"wXwXwXwXwXwXwXZ.q.E.-X<XD./ } / ) / ! x X Q / / } h l.R.( A ; 6 G / / ! h ^ E.;XwXwXwXwXwXwXwXwXwXwX",
"wXwXwXwXwXwXwXu./ ;XwX,XC./ ( ^ H R U A A ^ ! S Y J 1XqX;Xi.h # & ! / ~ D ^ / Y.wXwXwXwXwXwXwXwXwXwX",
"wXwXwXwXwXwXwX} / -X$XZ.) / / ^ z 8 H ( ..1.U a ~ ^ 0.OX0XZ.g * 6 0 K / / ,XE.F.wXwXwXwXwXwXwXwXwXwX",
"wXwXwXwXwXwXwXE.Y.z.D.G./ / _ Q A 0 F / J h h D g j J ^ B g q ; 6 . G / ^ 8XW.F.wXwXwXwXwXwXwXwXwXwX",
"wXwXwXwXwXwXwXwXwXF.F.-X/ ( J C XXV.! r.(./.I.^ I / ] } / ].h.f > g A K / S J T.wXwXwXwXwXwXwXwXwXwX",
"wXwXwXwXwXwXwXwXwXE./ / / ) J d.&XI.H R.qX,XU./ ] H ! / ( oXL.p u S 6 q / ..A j.wXwXwXwXwXwXwXwXwXwX",
"wXwXwXwXwXwXwXW.Y.8./ ../ / L a J #.#.c.T./ / { h K F G / / S d h & O a / } S J.wXwXwXwXwXwXwXwXwXwX",
"wXwXwXwXwXwXwXq./ ,X;X/ ..^ ` ,.b.Q *X7X/ 8.} Q p 4.w.-.,...) J f q = a / } S K.wXwXwXwXwXwXwXwXwXwX",
"wXwXwXwXwXwXwXp./ ;XoX/ | h V t.e.S [.>X/ } H p g _ /  .&.' ] ! h / a q / ] A h.}.wXwXwXwXwXwXwXwXwX",
"wXwXwXwXwXwXwXu.) / / } J Y -.y./ ; & A ( / K s a S ^ ! 0 x.9./ ( / a q / / K Q / W.wXwXwXwXwXwXwXwX",
"wXwXwXwXwXwXwXi./ } } ^ q -.N.#...L b m / ( H g ~ p H / Q >.7./ ( / f q / A ! } / Y.wXwXwXwXwXwXwXwX",
"wXwXwXwXwXwXwXi./ / / / a -.+.M.<XD.J j ( / t.S./ g J / / c.9.! g / a q / Q ^ } / Y.wXwXwXwXwXwXwXwX",
"wXwXwXwXwXwXwXi./ Q ^ _ a -.y.3.A...H g } / }.%Xa s J / _ a U ;.0 / H p g / / } / Y.wXwXwXwXwXwXwXwX",
"wXwXwXwXwXwXwXi./ H J _ a :.#.S / / K g / ( / ^ a p J ( / ].I.F @ ! H p g ^ J R / Y.wXwXwXwXwXwXwXwX",
"wXwXwXwXwXwXwXi./ / / ^ p y.N & ) / H g / ) Q A j g A E / 9X&XS i _ H p g ( 0 y / Y.wXwXwXwXwXwXwXwX",
"wXwXwXwXwXwXwXi.} ) / ^ a ;.r.B 0 5.$.g ../  X#Xh v s v / 6X%XJ ` / S p g p - l / Y.wXwXwXwXwXwXwXwX",
"wXwXwXwXwXwXwX} / / ( ^ p y.B r H 4X-X/ q./ OX3X^ v f R / 6X=XA 1 ^ H a h % S } / Y.wXwXwXwXwXwXwXwX",
"wXwXwXwXwXwXwXW.W.p./ _ p r.B > Q 5X;X/ 5.] S g ) S ~ ) / 9X:XA < ^ H f h X H ] / Y.wXwXwXwXwXwXwXwX",
"wXwXwXwXwXwXwXwXwXL.! { p y.O.1 Q 7X;X^ v.| T l H / / } ' '.I.S @ ! H p h h ~ ../ Y.wXwXwXwXwXwXwXwX",
"wXwXwXwXwXwXwXwXwXj.H { p r.B , J 5X;X^ v./ H q a h Q  .v.Q .X>XA | H f g _ / / / Y.wXwXwXwXwXwXwXwX",
"wXwXwXwXwXwXwXwXwXH.H } p w.O.r J 3X-X0.:.D.,.k h ! G Y N./ <X9XJ ..S a h ^ Z.D./ Y.wXwXwXwXwXwXwXwX",
"wXwXwXwXwXwXwXD.C.b S ^ q ! 1.>.r.H .X7XH 5X.XJ 8./ 5.;.( E.%X@XT } A A } / }.}./ Y.wXwXwXwXwXwXwXwX",
"wXwXwXwXwXwXwX0./ h G / H H +.N.B.- ).9XH 9X8X`./ J -.y.^ '.n.H b.( S a h } / C.E.XXwXwXwXwXwXwXwXwX",
"wXwXwXwXwXwXwXwXoXf.A ../ g I 2.N & _.6XL g.2X7X/ d B t./ % S q.>._ H z B { / E.wXwXwXwXwXwXwXwXwXwX",
"wXwXwXwXwXwXwXwXwXT./ / / F s 0 - + =.G.c.J =X7X^ { 6.,.! 1 F  .c.( A V t.r J Y.wXwXwXwXwXwXwXwXwXwX",
"wXwXwXwXwXwXwXwXwXU.p.E./ 6.>.:.z.t h / v.^ .X#Xa >.t.@.& 9 = i :.( S b B.$ J U.wXwXwXwXwXwXwXwXwXwX",
"wXwXwXwXwXwXwXwXwXU.U.$X/ 6.,.;.@.: h | 2.B.q % H 3.{ S & & = 6 g ^ R %.r.O m.XXwXwXwXwXwXwXwXwXwXwX",
"wXwXwXwXwXwXwXwXwXU./ / / w.,.;.@., h / / 7.$.R / J a - & G p - h / 3.N.r.J .XwXwXwXwXwXwXwXwXwXwXwX",
"wXwXwXwXwXwXwXwXwXE.E.;X/ 4.,.;.r.' A q 8 A S H ( Q f 6 Q / g = g h #.*.9 / XXwXwXwXwXwXwXwXwXwXwXwX",
"wXwXwXwXwXwXwXwXwXwXXXZ.) / 2.x.:...' I 6 Q ^ ^ ( 0 = g ^ A 6 7 G q -.&.O ( XXwXwXwXwXwXwXwXwXwXwXwX",
"wXwXwXwXwXwXwXwXwXwX}./ S / | w.>.r.d.M | 7._ / ( g J ! q O a Q ~ S w.>.% / XXwXwXwXwXwXwXwXwXwXwXwX",
"wXwXwXwXwXwXwXwXwXwXwXR.2 q J / 2.r.>.Z C *.y.2.p S ^ L X h K S q 9.@.w 9 |.wXwXwXwXwXwXwXwXwXwXwXwX",
"wXwXwXwXwXwXwXwXwXwXwXwXa.= d / / ;.r.y.Z { 3.*.%.L g a H H g l -.B.q s.@XwXwXwXwXwXwXwXwXwXwXwXwXwX",
"wXwXwXwXwXwXwXwXwXwXwXwXE.g ; p Q B Z ,.e.t.+.U z.c - 7 H g d o.N.8.g 3 '.wXwXwXwXwXwXwXwXwXwXwXwXwX",
"wXwXwXwXwXwXwXwXwXwXwXwXwXY.h   : ! @.s.>.%.W A % q = w ( a o.7./ Q f.^.wXwXwXwXwXwXwXwXwXwXwXwXwXwX",
"wXwXwXwXwXwXwXwXwXwXwXwXwXoXI.h O b x 4 4 + % & = g A A H F ^ C.=Xk.+XwXwXwXwXwXwXwXwXwXwXwXwXwXwXwX",
"wXwXwXwXwXwXwXwXwXwXwXwXwXwXwX}.B.- X 7 S J k i u U F H J } / ..:XwXwXwXwXwXwXwXwXwXwXwXwXwXwXwXwXwX",
"wXwXwXwXwXwXwXwXwXwXwXwXwXwXwXwX,XE.U - s { / ^ ^ ! ! { } / ..E.-XwXwXwXwXwXwXwXwXwXwXwXwXwXwXwXwXwX",
"wXwXwXwXwXwXwXwXwXwXwXwXwXwXwXwXwXwXXXF./ / Z.~.W.W.Z./ / D.oXwXwXwXwXwXwXwXwXwXwXwXwXwXwXwXwXwXwXwX",
"wXwXwXwXwXwXwXwXwXwXwXwXwXwXwXwXwXwXwXwXE.Y.}.;X;X;XU.} {.wXwXwXwXwXwXwXwXwXwXwXwXwXwXwXwXwXwXwXwXwX",
"wXwXwXwXwXwXwXwXwXwXwXwXwXwXwXwXwXwXwXwXwXwXXX/ 1.8.q.{.wXwXwXwXwXwXwXwXwXwXwXwXwXwXwXwXwXwXwXwXwXwX",
"wXwXwXwXwXwXwXwXwXwXwXwXwXwXwXwXwXwXwXwXwXwXwXwXwXwXwXwXwXwXwXwXwXwXwXwXwXwXwXwXwXwXwXwXwXwXwXwXwXwX"
};
