/* XPM */
static char *_880c0eef77749aea8e2b96561d95549SnLdpCw3eZtqOhlY[] = {
/* columns rows colors chars-per-pixel */
"50 50 208 2 ",
"   c None",
".  c #003900",
"X  c #094209",
"o  c #054E05",
"O  c #015002",
"+  c #025E03",
"@  c #1A5D1A",
"#  c #145915",
"$  c #036404",
"%  c #026B02",
"&  c #027402",
"*  c #037D03",
"=  c #0A760C",
"-  c #156D15",
";  c #1A631A",
":  c #186518",
">  c #147D13",
",  c #1E7D1E",
"<  c #177618",
"1  c #287E27",
"2  c #317830",
"3  c #427C41",
"4  c #586B56",
"5  c #567556",
"6  c #028203",
"7  c #028B03",
"8  c #0C810C",
"9  c #0A8C0B",
"0  c #088507",
"q  c #029402",
"w  c #029C02",
"e  c #0C9A0D",
"r  c #079408",
"t  c #148B14",
"y  c #1E801D",
"u  c #189817",
"i  c #189718",
"p  c #02A302",
"a  c #02AB02",
"s  c #0BA70B",
"d  c #0BAD0B",
"f  c #08A300",
"g  c #10A80F",
"h  c #02B303",
"j  c #02BC02",
"k  c #0CB20C",
"l  c #0ABB0B",
"z  c #07B208",
"x  c #0FA610",
"c  c #14AB13",
"v  c #1CA51C",
"b  c #1DAB1C",
"n  c #11A611",
"m  c #0FB511",
"M  c #13BA13",
"N  c #1AB31A",
"B  c #16B117",
"V  c #1D8320",
"C  c #279428",
"Z  c #358C35",
"A  c #1FAA20",
"S  c #2CA32E",
"D  c #21BF22",
"F  c #34AF34",
"G  c #3AB839",
"H  c #01C402",
"J  c #01CB02",
"K  c #09C50A",
"L  c #0CCB0C",
"P  c #07C308",
"I  c #02D302",
"U  c #01DC02",
"Y  c #0CD30C",
"T  c #0ADA0A",
"R  c #09D706",
"E  c #13CE13",
"W  c #1ACC1A",
"Q  c #17C219",
"!  c #17D718",
"~  c #01E402",
"^  c #01EB02",
"/  c #0BE40A",
"(  c #09E90B",
")  c #08E908",
"_  c #02F302",
"`  c #01FE01",
"'  c #07F608",
"]  c #0BF50B",
"[  c #07FD09",
"{  c #0BFE0B",
"}  c #08F807",
"|  c #10F40F",
" . c #14E314",
".. c #1BE51C",
"X. c #11EE11",
"o. c #0FFF11",
"O. c #11F211",
"+. c #13FD14",
"@. c #1BF41C",
"#. c #1CFC1C",
"$. c #15FF18",
"%. c #20C720",
"&. c #26CB26",
"*. c #3BC43B",
"=. c #22E223",
"-. c #29EF29",
";. c #24F523",
":. c #23FE24",
">. c #2BFE2C",
",. c #29F12B",
"<. c #33E733",
"1. c #2FFF30",
"2. c #35FE34",
"3. c #3BFE3B",
"4. c #5D985B",
"5. c #44BF43",
"6. c #4BBD4B",
"7. c #5DA75F",
"8. c #58BA59",
"9. c #719072",
"0. c #65AB65",
"q. c #69A469",
"w. c #6AB869",
"e. c #74AB74",
"r. c #79B578",
"t. c #44C443",
"y. c #46D346",
"u. c #53D253",
"i. c #60D85F",
"p. c #4CE34C",
"a. c #42E440",
"s. c #44FF44",
"d. c #48FF47",
"f. c #46FF48",
"g. c #4BFE4B",
"h. c #42F444",
"j. c #52EA51",
"k. c #4FFF51",
"l. c #53FE52",
"z. c #59FF57",
"x. c #5BFE5C",
"c. c #56F456",
"v. c #61C760",
"b. c #6CC16C",
"n. c #60DC61",
"m. c #6FCF70",
"M. c #7CC37D",
"N. c #66E666",
"B. c #64FE64",
"V. c #6BFE6A",
"C. c #71FF6F",
"Z. c #79EA78",
"A. c #6FFF70",
"S. c #74FE73",
"D. c #7DFE7D",
"F. c #81FF7E",
"G. c #87A986",
"H. c #8FB48F",
"J. c #98AC96",
"K. c #98BA98",
"L. c #83C381",
"P. c #9ACD99",
"I. c #9AD99B",
"U. c #84FE83",
"Y. c #8CFE8C",
"T. c #8DF68D",
"R. c #97F797",
"E. c #94FE93",
"W. c #9BFE9B",
"Q. c #98F798",
"!. c #A0FE9F",
"~. c #A7DBA7",
"^. c #ACD3AB",
"/. c #B5D2B3",
"(. c #9DFFA2",
"). c #ACE5AB",
"_. c #A5EAA7",
"`. c #A6F6A6",
"'. c #A4FEA4",
"]. c #ACF2AA",
"[. c #ACFEAB",
"{. c #A8FEA6",
"}. c #B0FFAE",
"|. c #BAE5BA",
" X c #B2FFB2",
".X c #BBFEBA",
"XX c #B8FEB7",
"oX c #C9DDC9",
"OX c #D7DAD7",
"+X c #C5E1C5",
"@X c #C4ECC4",
"#X c #C9E7CA",
"$X c #C6FFC5",
"%X c #C2F2C2",
"&X c #D0FDCF",
"*X c #DCE4DC",
"=X c #D6E2D5",
"-X c #D5FED5",
";X c #DEF5DD",
":X c #DBFEDB",
">X c #D2F7D1",
",X c #E2EEE2",
"<X c #E8F0E7",
"1X c #E4FEE3",
"2X c #EBF4EA",
"3X c #EAFDEA",
"4X c #E7F8E5",
"5X c #F1FFF0",
/* pixels */
"                                                                                                    ",
"                                                V.U.                                                ",
"                                        J.L.Y.E.g.B.E.U.U.F.E.                                      ",
"                                      G.*.^ ` ` ` ` ` ` ` ` 2.F.                                    ",
"                                  K.0.U #.>.2.].c.J t r ^ L p ` k.Y.                                ",
"                                e.H _ x.'.T.U 5 C I ' ^ ` _ ) +.` ` B. X                            ",
"                            H.6.~ s.F.'.x.J X a j J ~ [ ` ` ` ` { ` _ j.                            ",
"                          I.U ` ` E.1X` J k J { I 7 $ j M l H U ` [ ^ M q.n.Y.                      ",
"                        U.3.o.o.` f.V.+.> a ` ` ` ~ q q I p o & j ^ [ ` & J C.                      ",
"                        S.` +.` ' _ ~ p 6 j ` _ X.I 8.;XD.#.! w $ j ` ` t J ` V.                    ",
"                      '.x.` { ` H s Q _ _ ` ` a M ~ f.$X3XE.` &.7 q J ( _ g.z.1.[.                  ",
"                    S.>.` +.` ` L 9 q ` +.] J p I T R ` -X:XZ.h = 7 p A _  X-Xo.                    ",
"                  '.` '.B.` ] L U U W $.j q B ^ a j ( :.x.&X1X` u $ 0 k } u.m.3.                    ",
"                  {.:.B.3.` #.p ).:X[.` |.*X`.` _ ' _ :.` E.#X7 - h R a ] _ U y.                    ",
"                  D.` ` ` [ #.a oX$X` B..X'.` +._ R H ^ +.:.=.% * 6 q z _ +.^ t.).                  ",
"              {.+.s.U.:.` ` :.a +XXX` 3XV.` ` ` h I _ q ^ ` ~ + * & 6 h _ [ ^ t.                    ",
"              [.` U.1X2.` ] W p +X.X` 3XD.` @.I h I ` U J ) ' J 7 & 6 h _ [ ^ 5.).                  ",
"              '.` 2.B.+.[ U S |.Y.y.t b.<.` _ a p I ` ` a J ` ` w $ 6 h _ ` ^ B h.B.                ",
"              '.+.` ` ` Y w 1 <XB.J , a ^ [ _ v l h j ` H I _ ` q * w h _ ` ` _ ` s.}.              ",
"              '.o.` +.` Y q 2 <X.XB._ b ^ [ _ H ` T a ` ` I d ` * H _ p _ ` ` [ ` d.                ",
"              '.+.` ` ` R q 1 R.[.D._ n ( ` 3.'.p.j k ` ` U h ` * H _ a J ^ ` ` ` f.                ",
"              '.{ ^ l ` I q * ^ ` ` ] a ^ ` >.U.G w l ` ` Y m ` * H _ a p U ` } ` s.                ",
"              '.+.` ^ ` J a z , ..#.@.a ~ { ` ^ J s j @.` R.@X~ > H _ a p ~ ) = ^ f.                ",
"              '.+.` ` ` J a j % m ^ _ w ^ ` @.b.F h z b ^ '.*X% @ H _ a a I H X ^ s.                ",
"              '.` ` ` ` J a h 8 & w.W.I | ` f.3XZ.H c v ^ W.=X& @ H _ a j 7 * P _ f.                ",
"              {.2.` ` ` J a h , w I.1X` { ` ;.M.3.~ s =._ '.*X% : J _ p H 7 w [ ` f.                ",
"                  E.` [ J a j ; J T.:X` _ ] _ p U } _ $.` R.oXV ; J _ a j 7 p [ ` f.                ",
"                  ~.l ` J a h ; I Y.:X` L ! @.N d J _ ` { ~ v.;X4 j O.a a U } #.` s.                ",
"                  ~.l _ H j J @ I E.1X` ` ` _ s p j I U E ^ x.1X8.U O.a w T ` ` ` f.                ",
"               XS.c.a ` H J } s w u.Y.[.g.S.`.U R _ _ p W _ g.4Xx.` X.p T _ g.!.:.2.[.              ",
"              '.` ~ a ` H H _ j t % f 2Xx.W.3XM O.[ ^ b ^ E.%X8.,.` ^ p ) ` 2.S.2.V.                ",
"              [.V.a.w ' ` U h ` d + 3 2XE.Z.OX;XB.U n v ^ Q.@X_ { [ _ h & Y ` ` '.                  ",
"                  _.U O.[ / u I e $ Z ].5X^.a 3XV.U c J { U j $.~ ^ _ z + s U g.                    ",
"                  '.[ ` ` _ I q w 7 6 _ U.S.s.3XN.h M [ ~ k e j w U _ p J r 7 3.[.                  ",
"                  '.+.[.x.V..XN ~ K & ;.` ` ,.9.F a l ` P 6 $ % w ~ ^ p ` l 7 z. X                  ",
"                  '.$.g.` D.>X%.j x * *  .$.I 6 J ) U a ^ J * 6 p ~ _ p / h 7. X                    ",
"                  '.` S.f.` ` ` T p + % J h * ..9 a U H _ [ / % p I ~ J - H D.                      ",
"                    D.(.x.` +.` ` ^ h 6 o p ~ U 6 6 J ` ` _ J + a a j ` > H S.                      ",
"                      2.` $.` ` ` ` _ & w j I J I J J _ U a * p ~ J j [ , H C.                      ",
"                      V.a s _ _ ` ~ a 6 a z h ~ J j H I 6 % p ^ j I ^ ^ & J F.                      ",
"                        b.6 t ` ` ~ j a 7 * 6 a P H J I a H U h h ) ^ = 4.P.                        ",
"                        S.U # H _ ` ` J U j * * I ~ j $ J I p p ) { / % r./.                        ",
"                          N.j # r R ` ` ` _ U ~ p 7 w $ I J h ~ ` ` U Z 0.                          ",
"                          {.s.7 . s ` _ _ J r p * 7 p * ~ R j ` 3.&.w.P.                            ",
"                            [.V.%.6 < 0 p p 6 & $ d ~ U H U } +.D.).                                ",
"                                U.p.p O n ~ } E E E E J _ +.` ` l.(.                                ",
"                                    D.<.j U ` ` ` ` ` [ ` ` g.Y.                                    ",
"                                      '.B.:.s.[.XX.XW.` [ S.[.                                      ",
"                                            '.S.B.V.z.$.W.                                          ",
"                                                                                                    "
};
