/* XPM */
static char *result[] = {
/* columns rows colors chars-per-pixel */
"50 50 203 2 ",
"   c #233123",
".  c #034C04",
"X  c #0A4309",
"o  c #005300",
"O  c #025B02",
"+  c #174017",
"@  c #175919",
"#  c #026403",
"$  c #026B02",
"%  c #0F630F",
"&  c #086F07",
"*  c #027303",
"=  c #027C02",
"-  c #0A780A",
";  c #186819",
":  c #107210",
">  c #297C2A",
",  c #467C45",
"<  c #028402",
"1  c #028A02",
"2  c #0C800C",
"3  c #078408",
"4  c #029502",
"5  c #029B02",
"6  c #0B970B",
"7  c #0B9B0B",
"8  c #128512",
"9  c #118B11",
"0  c #1A811A",
"q  c #159C14",
"w  c #1B971B",
"e  c #1C9E1C",
"r  c #02A402",
"t  c #02AB02",
"y  c #0CA40D",
"u  c #0BAB0B",
"i  c #08A407",
"p  c #01B402",
"a  c #02BB02",
"s  c #0BB40B",
"d  c #0BBC0C",
"f  c #0FAB10",
"g  c #15AB15",
"h  c #1CA41C",
"j  c #1CAD1D",
"k  c #17A317",
"l  c #13B412",
"z  c #14BA14",
"x  c #1AB31A",
"c  c #1BBE1B",
"v  c #238823",
"b  c #209520",
"n  c #29AB29",
"m  c #2CBF2D",
"M  c #34AC33",
"N  c #02C402",
"B  c #02CB02",
"V  c #0BC50C",
"C  c #06CA08",
"Z  c #01D401",
"A  c #01DB02",
"S  c #0CD30B",
"D  c #0BDD0B",
"F  c #07DE08",
"G  c #15C915",
"H  c #10C110",
"J  c #14D314",
"K  c #14D914",
"L  c #1AD41A",
"P  c #01E301",
"I  c #01EC01",
"U  c #0AE20A",
"Y  c #0AED0A",
"T  c #02F402",
"R  c #01FE01",
"E  c #0BF40B",
"W  c #06FF08",
"Q  c #0AFD0B",
"!  c #09FA07",
"~  c #10FD0D",
"^  c #0FE610",
"/  c #10E610",
"(  c #1AE417",
")  c #0DFC11",
"_  c #13F414",
"`  c #13FD14",
"'  c #17FF19",
"]  c #1CFD1C",
"[  c #1DF71E",
"{  c #20E11C",
"}  c #2BCD2B",
"|  c #3FCE3F",
" . c #2EDC31",
".. c #23FE25",
"X. c #2CFE2C",
"o. c #21F521",
"O. c #2FFF31",
"+. c #33FC33",
"@. c #3DF53E",
"#. c #37FF39",
"$. c #3BFE3B",
"%. c #32F731",
"&. c #479347",
"*. c #4AAC4B",
"=. c #48B749",
"-. c #5EAB5E",
";. c #5BBC5B",
":. c #53B952",
">. c #668B66",
",. c #6E996F",
"<. c #6EA66E",
"1. c #70A46F",
"2. c #6EB56D",
"3. c #74BC74",
"4. c #77B478",
"5. c #4AC049",
"6. c #4BDF4C",
"7. c #58C757",
"8. c #54D754",
"9. c #4DE44E",
"0. c #44E843",
"q. c #44F344",
"w. c #44FF44",
"e. c #47FF48",
"r. c #4CFF4C",
"t. c #49F649",
"y. c #50FF4F",
"u. c #50F24E",
"i. c #52ED52",
"p. c #4FFF51",
"a. c #52FF52",
"s. c #5CFD5C",
"d. c #60E75F",
"f. c #60FE5F",
"g. c #7BDE7B",
"h. c #5FFC60",
"j. c #64FF64",
"k. c #68FE67",
"l. c #67FF68",
"z. c #6CFF6D",
"x. c #6EF46E",
"c. c #75F475",
"v. c #73FE73",
"b. c #7BFE7B",
"n. c #7AF07A",
"m. c #7FFF80",
"M. c #839E82",
"N. c #8DAE8D",
"B. c #82B081",
"V. c #98A797",
"C. c #98BA98",
"Z. c #82C482",
"A. c #8CC68D",
"S. c #91C28F",
"D. c #81D781",
"F. c #90D08E",
"G. c #92CB92",
"H. c #9CC99B",
"J. c #98C798",
"K. c #96D596",
"L. c #85FD84",
"P. c #8BF48B",
"I. c #8BFE8B",
"U. c #90F08E",
"Y. c #9BE09B",
"T. c #8EFC91",
"R. c #96F495",
"E. c #95FE95",
"W. c #99F39A",
"Q. c #9BFE9B",
"!. c #97FF9A",
"~. c #A4CBA5",
"^. c #B9D8B8",
"/. c #9FFFA0",
"(. c #A3E8A3",
"). c #A4FEA3",
"_. c #AAFEAB",
"`. c #A0F1A0",
"'. c #B5E7B6",
"]. c #AEFDB0",
"[. c #B2FEB2",
"{. c #BCFEBC",
"}. c #C1FEBF",
"|. c #D1D8CF",
" X c #D6DDD6",
".X c #CDE3CD",
"XX c #C2F2C3",
"oX c #C5FEC4",
"OX c #CFF5CE",
"+X c #CDFECD",
"@X c #D1E3D1",
"#X c #D2FED2",
"$X c #DCFDDC",
"%X c #D9FCD7",
"&X c #DFFDE0",
"*X c #EBEEEA",
"=X c #E4F4E3",
"-X c #E2FEE2",
";X c #EBFDEB",
":X c #E8FAE7",
">X c #F0FFEF",
",X c #F2FDF1",
"<X c None",
/* pixels */
"<X<X<X<X<X<X<X<X<X<X<X<X<X<X<X<X<X<X<X<X<X<X<X<X<X<X<X<X<X<X<X<X<X<X<X<X<X<X<X<X<X<X<X<X<X<X<X<X<X<X",
"<X<X<X<X<X<X<X<X<X<X<X<X<X<X<X<X<X<X<X<X<X<X<X<XL.j.<X<X<X<X<X<X<X<X<X<X<X<X<X<X<X<X<X<X<X<X<X<X<X<X",
"<X<X<X<X<X<X<X<X<X<X<X<X<X<X<X<X<X<X<X<XB.*.a.w.Q ' a.a.y.e.a.).<X<X<X<X<X<X<X<X<X<X<X<X<X<X<X<X<X<X",
"<X<X<X<X<X<X<X<X<X<X<X<X<X<X<X<X<X<XC.2.Z R R k.a.R Z B I T Z X.b.<X<X<X<X<X<X<X<X<X<X<X<X<X<X<X<X<X",
"<X<X<X<X<X<X<X<X<X<X<X<X<X<X<X<X<X1.| T j.E.R G.3.p x u U Y g T R a.b.<X<X<X<X<X<X<X<X<X<X<X<X<X<X<X",
"<X<X<X<X<X<X<X<X<X<X<X<X<X<X<XN.;.P R E.Q.n.t # 5 S R W R R R W Q R W v.).<X<X<X<X<X<X<X<X<X<X<X<X<X",
"<X<X<X<X<X<X<X<X<X<X<X<X<X<X4.Z T r.+XL.X.Z % K G 4 1 ( _ I T T R Q T t Z.<X<X<X<X<X<X<X<X<X<X<X<X<X",
"<X<X<X<X<X<X<X<X<X<X<X<X<XI...R R e.oXy.N v T R R A = = 4 w $ r A T W E n M z.<X<X<X<X<X<X<X<X<X<X<X",
"<X<X<X<X<X<X<X<X<X<X<X<XE.R W W R R R Z 9 = R R R T r A.t.I j # * a W W 5 1 ..L.<X<X<X<X<X<X<X<X<X<X",
"<X<X<X<X<X<X<X<X<X<X<X<XI.R W R I C J V N Z W A V S A -X$XL.R K 4 1 A R D Z R R E.<X<X<X<X<X<X<X<X<X",
"<X<X<X<X<X<X<X<X<X<X<Xb...W R R D b h T Q ] ] t N I [ +.#X$XT x < < p z I l.oXO.E.<X<X<X<X<X<X<X<X<X",
"<X<X<X<X<X<X<X<X<X<Xs.a.r.R W E A p 1 P T Z t a d p c T I.$X%Xw.p % * q P c..X+.E.<X<X<X<X<X<X<X<X<X",
"<X<X<X<X<X<X<X<X<X{.#.I.L.R ' p 8.E.R.#.8.V.S.%.A S R ..R z.,X6.5 8 a t I I N I R.<X<X<X<X<X<X<X<X<X",
"<X<X<X<X<X<X<X<X<X<Xa.R R Q ] a H.;X/.R ).,XQ.w.R Q B Q R r.W.> O 6 B t P W ` p F.<X<X<X<X<X<X<X<X<X",
"<X<X<X<X<X<X<X<Xf.e.R R ` R ] N H.#XR _.Q.e.R R F N P a U R T 1 * = $ r P W T N K.<X<X<X<X<X<X<X<X<X",
"<X<X<X<X<X<X<X}.r.` #Xv.R ` o.p H.-XR :X[.R X.T B p R p Z Q o.5 = = 3 r P R W N K.<X<X<X<X<X<X<X<X<X",
"<X<X<X<X<X<X<X<Xr...}.k.R ` p ;.K.[.A '.P.R ` a r B R R B p R R p # < r P R T t g.<X<X<X<X<X<X<X<X<X",
"<X<X<X<X<X<X<X<Xy.R R W E L 1 @X].P   1 A Q R d i p Z R B p W R p O * i P R W Z T ] Q.<X<X<X<X<X<X<X",
"<X<X<X<X<X<X<X<Xa.R ] Q A e # |.[.T L x K R W p B U 5 T T A B R p 1 A t P R R R W R E.<X<X<X<X<X<X<X",
"<X<X<X<X<X<X<X<Xy.R W W P g $ ^.$X).R s Z R R i.@.I r T R Y e T t 5 R t F R R R R R !.<X<X<X<X<X<X<X",
"<X<X<X<X<X<X<X<Xa.R U R P r O ( $.$.R p Z Q R _.D.r g I Q P 5 R t 5 R p r B R W R R !.<X<X<X<X<X<X<X",
"<X<X<X<X<X<X<X<Xy.T V I P r 4 p P R Q p Z W R R A r p E R q.G.X.t 6 R p r N R C I R !.<X<X<X<X<X<X<X",
"<X<X<X<X<X<X<X<Xy.R W R A t N # s R R p Z R Q Z p s p G I z.:X5.= y ! a r Z T o B R !.<X<X<X<X<X<X<X",
"<X<X<X<X<X<X<X<Xa.R Q R F t a 1 = l +.d Z ` R '.F.p x q Z l.=X, o u T p p t 5 * Z R E.<X<X<X<X<X<X<X",
"<X<X<X<X<X<X<X}.e.R W R A t a 9 = :.%Xs.R ] T {.R.I h l P l.=X&.# y T p p r & P R R !.<X<X<X<X<X<X<X",
"<X<X<X<X<X<X<X<Xb.k.' R A r a 8 4 8.:Xj.R ` W t A Q N _ R z.;X> o g R p a r # T R R E.<X<X<X<X<X<X<X",
"<X<X<X<X<X<X<X<X<XXX9.R U r N - p r.-Xj.A J ` z d P R Q R q.J.~.>.r ` p t p N ~ W R E.<X<X<X<X<X<X<X",
"<X<X<X<X<X<X<X<X<X<X:.I U r a : p a.;Xs.T U R p r t N T Q I P &XV.4 ] a r B R R R R E.<X<X<X<X<X<X<X",
"<X<X<X<X<X<X<X<X<X`.=.I D p T 6 r u.+Xv.] ] a.} s B I a s Z R $XW.I ] p t Z W s.$.R E.<X<X<X<X<X<X<X",
"<X<X<X<X<X<X<X<Xl.E r I A r R B 3 8 Z OX).r.&X .I ` R s Z $.v.^.c.R ` t P R Q ).f.R !.<X<X<X<X<X<X<X",
"<X<X<X<X<X<X<X<Xa.R r I T B Z A p ; O  X).R ,X^.d.R K g Z b.;X} I ` T a p Z W R j.b._.<X<X<X<X<X<X<X",
"<X<X<X<X<X<X<X<X!.P.n I ` T q Y Z ; $ .X-X(.,.*X).P h i A 0.g.+.W W T N # 5 W W Q.<X<X<X<X<X<X<X<X<X",
"<X<X<X<X<X<X<X<X<X<Xa.R R T p 5 3 = ; { {.OXA $X).P j P ! P r I C B R p 4 3 5 Q E.<X<X<X<X<X<X<X<X<X",
"<X<X<X<X<X<X<X<X<X{.w.j.s.R h.} p B # I R Q R '.A.r k R A 7 : 3 4 B R t P Z # R E.<X<X<X<X<X<X<X<X<X",
"<X<X<X<X<X<X<X<X<X<Xw.I.b.#.:X3.B K * l / R W # r U Z A A p O * 4 B R r I A @ x.).<X<X<X<X<X<X<X<X<X",
"<X<X<X<X<X<X<X<X<X{.w.R R X.I.0.N 7 = . N E r G H p A 5 A ! B = 4 Z R p u p 9.<X<X<X<X<X<X<X<X<X<X<X",
"<X<X<X<X<X<X<X<X<X<Xf.!.I.R R R W A = - 1 5 r Z 5 & F P R R W < 4 p N T 6 4 a.<X<X<X<X<X<X<X<X<X<X<X",
"<X<X<X<X<X<X<X<X<X<X<Xb.O.R ] W R R T 5 # 5 I P a 4 r T R P t * p N 5 ! p 4 y.<X<X<X<X<X<X<X<X<X<X<X",
"<X<X<X<X<X<X<X<X<X<X<Xz.T L R R R W I 1 6 N p B A A A P a 3 O B P A B W g 5 y.}.<X<X<X<X<X<X<X<X<X<X",
"<X<X<X<X<X<X<X<X<X<X<X!.7.o s I R I 5 5 4 4 4 A N r t A 5 = B A p a T V = *.L.<X<X<X<X<X<X<X<X<X<X<X",
"<X<X<X<X<X<X<X<X<X<X<X<XU.P X Z R R I N t 5 $ O a I F t N A B r Z T E * 1.^.<X<X<X<X<X<X<X<X<X<X<X<X",
"<X<X<X<X<X<X<X<X<X<X<X<XE.%.9 3 a T R T T I a a N p r # t B r p U ` ! 1 &.S.<X<X<X<X<X<X<X<X<X<X<X<X",
"<X<X<X<X<X<X<X<X<X<X<X<X<X_.#.1 + 5 W R R W Z F t $ i . B I 5 T R R Z -.N.<X<X<X<X<X<X<X<X<X<X<X<X<X",
"<X<X<X<X<X<X<X<X<X<X<X<X<X<XI.0.4 & V N N t . # & 1 N N B Z S R k.g.B.<X<X<X<X<X<X<X<X<X<X<X<X<X<X<X",
"<X<X<X<X<X<X<X<X<X<X<X<X<X<X<X).c.Z O X 7 Z A g w g J B Z I ' R w.!.<X<X<X<X<X<X<X<X<X<X<X<X<X<X<X<X",
"<X<X<X<X<X<X<X<X<X<X<X<X<X<X<X<X<XI.s.5 1 z ` T T I I P ` R R w.b.<X<X<X<X<X<X<X<X<X<X<X<X<X<X<X<X<X",
"<X<X<X<X<X<X<X<X<X<X<X<X<X<X<X<X<X<X<XL.$.R R k.L.b.v.X.R R v.].<X<X<X<X<X<X<X<X<X<X<X<X<X<X<X<X<X<X",
"<X<X<X<X<X<X<X<X<X<X<X<X<X<X<X<X<X<X<X<XQ.z.z.).].]._.+.a.E.<X<X<X<X<X<X<X<X<X<X<X<X<X<X<X<X<X<X<X<X",
"<X<X<X<X<X<X<X<X<X<X<X<X<X<X<X<X<X<X<X<X<X<X<Xs.R R R R E.<X<X<X<X<X<X<X<X<X<X<X<X<X<X<X<X<X<X<X<X<X",
"<X<X<X<X<X<X<X<X<X<X<X<X<X<X<X<X<X<X<X<X<X<X<X<X<X<X<X<X<X<X<X<X<X<X<X<X<X<X<X<X<X<X<X<X<X<X<X<X<X<X"
};
