/* XPM */
static char *result[] = {
/* columns rows colors chars-per-pixel */
"50 50 185 2 ",
"   c #003500",
".  c #1B3B1C",
"X  c #034503",
"o  c #024C03",
"O  c #0D4B0C",
"+  c #025303",
"@  c #025E02",
"#  c #085F07",
"$  c #0A5E09",
"%  c #144813",
"&  c #105E10",
"*  c #026302",
"=  c #026A02",
"-  c #066709",
";  c #0C670D",
":  c #027402",
">  c #037B03",
",  c #09700A",
"<  c #0B7E0B",
"1  c #136513",
"2  c #136E13",
"3  c #1D6B1D",
"4  c #1B7A1C",
"5  c #038303",
"6  c #028D02",
"7  c #088308",
"8  c #078808",
"9  c #039303",
"0  c #029C02",
"q  c #1F801F",
"w  c #198D19",
"e  c #189C17",
"r  c #02A402",
"t  c #08A407",
"y  c #02AB02",
"u  c #0CA40C",
"i  c #0AAB0A",
"p  c #02B302",
"a  c #02BB02",
"s  c #0DB50D",
"d  c #07B808",
"f  c #0CBB0C",
"g  c #10B00F",
"h  c #18A818",
"j  c #14A615",
"k  c #0FB810",
"l  c #13B313",
"z  c #19B718",
"x  c #208020",
"c  c #3E8D3F",
"v  c #319533",
"b  c #23A023",
"n  c #24B725",
"m  c #30B131",
"M  c #02C402",
"N  c #02CC02",
"B  c #07C408",
"V  c #0CC20C",
"C  c #0CCA0D",
"Z  c #02D402",
"A  c #02DC02",
"S  c #0BD20C",
"D  c #0CDB0C",
"F  c #0FCC10",
"G  c #12C414",
"H  c #12CA12",
"J  c #17C518",
"K  c #19CE19",
"L  c #1DC31D",
"P  c #15D415",
"I  c #18D417",
"U  c #01E402",
"Y  c #01EC01",
"T  c #0CE40C",
"R  c #0CE90C",
"E  c #01F401",
"W  c #01FE01",
"Q  c #0AF50A",
"!  c #0CFD0C",
"~  c #10E511",
"^  c #13EB13",
"/  c #1FEA1E",
"(  c #0EFE10",
")  c #15F414",
"_  c #13FD13",
"`  c #18FF17",
"'  c #1BFE1B",
"]  c #18F61B",
"[  c #26C727",
"{  c #27D827",
"}  c #2FDF2F",
"|  c #1EFF20",
" . c #2AE52B",
".. c #24FC24",
"X. c #28FF27",
"o. c #2AFF2A",
"O. c #34F336",
"+. c #34FE35",
"@. c #38FF37",
"#. c #3BFF3B",
"$. c #41A540",
"%. c #48AD48",
"&. c #54AB54",
"*. c #57B357",
"=. c #6B996A",
"-. c #7C9B7B",
";. c #60B360",
":. c #74AF73",
">. c #40C140",
",. c #47C947",
"<. c #46DF46",
"1. c #54CD55",
"2. c #51D651",
"3. c #43E543",
"4. c #46FD46",
"5. c #48FF47",
"6. c #4FF44F",
"7. c #47FF48",
"8. c #4DFE4C",
"9. c #5BED59",
"0. c #53FE53",
"q. c #58FC57",
"w. c #5DFF5D",
"e. c #53F552",
"r. c #60CF61",
"t. c #64D064",
"y. c #70DB6E",
"u. c #77C276",
"i. c #74D573",
"p. c #67E767",
"a. c #64FF64",
"s. c #6BFE6B",
"d. c #64F363",
"f. c #70FF6F",
"g. c #75FF75",
"h. c #7BFE7C",
"j. c #7AF179",
"k. c #7FFF80",
"l. c #889A89",
"z. c #88AD88",
"x. c #83B184",
"c. c #97BD97",
"v. c #9BB89B",
"b. c #A5BDA5",
"n. c #89CB8B",
"m. c #90CE8F",
"M. c #88D289",
"N. c #98C898",
"B. c #88E588",
"V. c #84FE83",
"C. c #88FE86",
"Z. c #8BFE8B",
"A. c #8CF08C",
"S. c #90F88E",
"D. c #96EA95",
"F. c #94FE94",
"G. c #99FF95",
"H. c #97FF98",
"J. c #9CFE9C",
"K. c #99F09A",
"L. c #A0F09E",
"P. c #AADDA9",
"I. c #B2C7B1",
"U. c #B5D5B3",
"Y. c #9EFCA0",
"T. c #A7E9A6",
"R. c #ABE7AB",
"E. c #A4FDA3",
"W. c #A8FDA7",
"Q. c #ACFEAC",
"!. c #A9F8AA",
"~. c #AFFFB1",
"^. c #B8FFB7",
"/. c #BDFEBC",
"(. c #CDDECD",
"). c #C4FEC3",
"_. c #C7FCC8",
"`. c #CAFFC9",
"'. c #D2E5D3",
"]. c #D8FFD6",
"[. c #DCFCDD",
"{. c #E0FCDF",
"}. c #E4FEE4",
"|. c #EBFDEA",
" X c None",
/* pixels */
" X X X X X X X X X X X X X X X X X X X X X X X X X X X X X X X X X X X X X X X X X X X X X X X X X X",
" X X X X X X X X X X X X X X X X X X X X X X X XJ.w. X X X X X X X X X X X X X X X X X X X X X X X X",
" X X X X X X X X X X X X X X X X X X X Xc.&.e.8._ W 8.0.0.8.8.J. X X X X X X X X X X X X X X X X X X",
" X X X X X X X X X X X X X X X X X Xb.:.N E W w.a.W U A E E Z ! g.Q. X X X X X X X X X X X X X X X X",
" X X X X X X X X X X X X X X X X Xz.,.U 7.J.W V.V.W I C T Q l r A 4.C. X X X X X X X X X X X X X X X",
" X X X X X X X X X X X X X X Xc.;.A W V.E.k.X.W Y F Z A N Z W A l 0 p d.E. X X X X X X X X X X X X X",
" X X X X X X X X X X X X X Xx.[ E _ ).J.@.W E ) ^ Z 6 9 y p a Y W S 3 > u. X X X X X X X X X X X X X",
" X X X X X X X X X X X X XY.O.W ` W ).g.E { 5 5 5 9 Z a t r p y N E W l 4 $.a. X X X X X X X X X X X",
" X X X X X X X X X X X XW.#.W ( W ! W W K   5 , * * + y a y y d y p A W a * W h. X X X X X X X X X X",
" X X X X X X X X X X X XE.' W ! W W ` W Y B = p Z N Z B A W A a r y r Y R N W W F. X X X X X X X X X",
" X X X X X X X X X X XF.@.! _ W 0.W.Y C.D.y P E W W W W W W W O.O.U y k U 4.).7.V. X X X X X X X X X",
" X X X X X X X X X Xh.4.0.W W +.8.6.0 ,.3.N W W W U B y B ) W J.Z.W z u Z 8.'.0.V. X X X X X X X X X",
" X X X X X X X X X X7.h.G.W W /.`.W ` r : d W E N p U A a r U Q ! W W p N E M U A. X X X X X X X X X",
" X X X X X X X X X Xa.W W ` W g.B.p ( i u ! Z p r i r p Z A 0 Y W W W A Y W ' a n. X X X X X X X X X",
" X X X X X X X XC.a.W W ` W ^.g.Y L y , y E 0 Z Y U E y 0 A U B A W W ! W W _ M M. X X X X X X X X X",
" X X X X X X X Xa.W `.F.W W (.S.U w * M +.q.k Y U a Y A p r a U W W W Y E W ` M m. X X X X X X X X X",
" X X X X X X X Xs.W ^.V.W ..r M B = 1 Z a.P...N r p N A A a y A E W W 6 p W _ p i.G. X X X X X X X X",
" X X X X X X X Xa.W W W W W W i @ 5 @ Z E N A a y a A p Z W y 0 Z W W 9 p W W A U W C. X X X X X X X",
" X X X X X X X Xa.W X.W 0.W.+.p , 5 @ H _ ! p y s l y y d N U p N W W 9 p W W W _ W C. X X X X X X X",
" X X X X X X X Xa.W ' W g.|.8.p ; 5 , Z W Q p i N U Y N y p W M N W W 6 d W W W ! W C. X X X X X X X",
" X X X X X X X Xa.W / E g.|.8.p & 7 Y 6.0.W i U 3.u.( W A y W d N W W 9 r Y W W ! W C. X X X X X X X",
" X X X X X X X Xs.W h A 0.E.+.p ; 4 E /.).E b U a.Y.] W A r W M a U W r + 6 E N T W C. X X X X X X X",
" X X X X X X X Xs.W f d A W W p @ q Y /.`.W  .M A W W Z N U W M r p W 0 + 6 W , s W V. X X X X X X X",
" X X X X X X X Xa.W k r B ' ! p @ < E 2.1.W W T.T.W ` Y E W W M r p W 6 y A 0 : V W C. X X X X X X X",
" X X X X X X X Xa.W d r B W W p * > Q W A h E Q.Q.W ` E W W W M y B W 6 a E o A ! W C. X X X X X X X",
" X X X X X X X XZ.s.n y B W ` g o 5 Y ( ^ r ! W W ! U p N W U p N W W 9 a Y # Y ! W C. X X X X X X X",
" X X X X X X X X X Xr.y H E p a i : E W U y E ~ S Z p t Z E y r Z W W 9 a Y X T _ W C. X X X X X X X",
" X X X X X X X X X Xr.r G W I.j.U 1 E W U r W M 0 p p y Z W p r Z W W 0 > y A W W W C. X X X X X X X",
" X X X X X X X X XQ.1.r G W }.J.A 3 A W A r Y Z p y r A E Y p r Z W W r + 8 Y 0.4.W C. X X X X X X X",
" X X X X X X X Xg...f t C W [.G.A 3 @ Z E M y Y E M N E U r d r N Q Z 9 > 7 = K.h.W C. X X X X X X X",
" X X X X X X X Xs.W a u B W }.J.A 3 * Z W E p M A A N E U r p N E Y @ = > > 2 U 0.h. X X X X X X X X",
" X X X X X X X X!.J.[ r J W h.7.Z 1 > 9 N W y y y y A Z M p p M U Y = N p - 2 Y Z. X X X X X X X X X",
" X X X X X X X X X Xa.M M ( W n %.^ < o t E E U A Y B a 0 5 y A E Y * Y Z = 2 Y C. X X X X X X X X X",
" X X X X X X X X X Xw.8.s.W 0.K.B.Z u 5 : 5 A p 0 p y 0 p N = U _ ] X A W U 3 Y C. X X X X X X X X X",
" X X X X X X X X X Xq.g.F.W [.G.U l...p - 5 o A W N A a B M o D Y p i Y W Y o p.E. X X X X X X X X X",
" X X X X X X X X X Xw.W W W C.4.g.}.4.y ; > > t a a a M 0 = H E y.b.W ! D r  .R. X X X X X X X X X X",
" X X X X X X X X X Xs.C.J.W W a m 9.e M B > 5 : = = = = = 9 ` W F.].W ! d = +. X X X X X X X X X X X",
" X X X X X X X X X X XZ.+.W ` ) Z > Y r r Y , : 5 5 5 6 : : E ! W W W W M > @. X X X X X X X X X X X",
" X X X X X X X X X X XC.W K W W S % S a N W d > * = = @ 5 a ! W 0.h.W W H : X.G. X X X X X X X X X X",
" X X X X X X X X X X XQ.i.O t Y E a o r a a W A M N N B A W ( W a.Z.W H 6 v C. X X X X X X X X X X X",
" X X X X X X X X X X X X!.Y + M W W U 0 o # 0 0 B W W W W W M f A W _ 6 =.U. X X X X X X X X X X X X",
" X X X X X X X X X X X X~.a.0 < y Y ! W Z 6 5 5 > < 0 U W U p y P X._ 0 c N. X X X X X X X X X X X X",
" X X X X X X X X X X X X X X0.r . 5 E W Y A W W U r M U Z y r R W E A *.c. X X X X X X X X X X X X X",
" X X X X X X X X X X X X X XZ.9.y * l E E N Z Z A Z 6 y y y S E w.K.-. X X X X X X X X X X X X X X X",
" X X X X X X X X X X X X X X X XV. .@ > F W U s e h l i M Y ' W #.~. X X X X X X X X X X X X X X X X",
" X X X X X X X X X X X X X X X X XQ.s.y = j ) W E E E Y ( ! W o.V. X X X X X X X X X X X X X X X X X",
" X X X X X X X X X X X X X X X X X X XZ.8.W W 0.V.h.h.#.W W a.W. X X X X X X X X X X X X X X X X X X",
" X X X X X X X X X X X X X X X X X X X XQ.s.s.G.Q.Q.Q.7.@.Z. X X X X X X X X X X X X X X X X X X X X",
" X X X X X X X X X X X X X X X X X X X X X X Xh.W ..X.+.C. X X X X X X X X X X X X X X X X X X X X X",
" X X X X X X X X X X X X X X X X X X X X X X X X X X X X X X X X X X X X X X X X X X X X X X X X X X"
};
