/* XPM */
static char *result[] = {
/* columns rows colors chars-per-pixel */
"50 50 169 2 ",
"   c #C31D17",
".  c #C4221E",
"X  c #C52621",
"o  c #CA2521",
"O  c #C32B25",
"+  c #CD2B26",
"@  c #CD2C2A",
"#  c #D22E2D",
"$  c #C6352E",
"%  c #CC312D",
"&  c #D3322E",
"*  c #D52F31",
"=  c #DD2F32",
"-  c #C33230",
";  c #CC3531",
":  c #C53934",
">  c #CC3A34",
",  c #CA3E3A",
"<  c #D43332",
"1  c #DB3433",
"2  c #DB3936",
"3  c #D4363A",
"4  c #DC363B",
"5  c #D53B3A",
"6  c #DD3C3A",
"7  c #E03636",
"8  c #E53738",
"9  c #E13C3C",
"0  c #ED3A3D",
"q  c #C6453F",
"w  c #CB443F",
"e  c #D3403E",
"r  c #DF413D",
"t  c #E3423E",
"y  c #E13C42",
"u  c #CC4642",
"i  c #C64A44",
"p  c #CC4A45",
"a  c #CE4D4A",
"s  c #D54345",
"d  c #DC4543",
"f  c #D34846",
"g  c #DA4A46",
"h  c #DC4F4A",
"j  c #C6544F",
"k  c #C8534E",
"l  c #D3524F",
"z  c #DC534E",
"x  c #C45553",
"c  c #CD5656",
"v  c #CC5D56",
"b  c #CD5E5A",
"n  c #D25452",
"m  c #DC5055",
"M  c #D15A54",
"N  c #D75E58",
"B  c #E44343",
"V  c #E94644",
"C  c #E44A46",
"Z  c #EA4946",
"A  c #E7474A",
"S  c #E34C4C",
"D  c #EC4D4A",
"F  c #F34F4D",
"G  c #E3504D",
"H  c #EB524D",
"J  c #F2514F",
"K  c #F14F50",
"L  c #ED5452",
"P  c #ED5955",
"I  c #E35859",
"U  c #EF5C59",
"Y  c #F45553",
"T  c #F45A55",
"R  c #F35D5A",
"E  c #F95F5A",
"W  c #CA605C",
"Q  c #D1665F",
"!  c #E7645B",
"~  c #EE645D",
"^  c #F3615D",
"/  c #FA655E",
"(  c #CC6561",
")  c #CB6965",
"_  c #CD6D6A",
"`  c #D36765",
"'  c #DA6663",
"]  c #D36A66",
"[  c #D66E6A",
"{  c #DA6C69",
"}  c #CF716C",
"|  c #D2716C",
" . c #CE7371",
".. c #CF7876",
"X. c #D47672",
"o. c #DD7472",
"O. c #D27A75",
"+. c #DD7478",
"@. c #D37C7A",
"#. c #EF6262",
"$. c #EE6B69",
"%. c #F56563",
"&. c #FA6661",
"*. c #F66B64",
"=. c #FA6A63",
"-. c #F56D6B",
";. c #FA6E6A",
":. c #F2716F",
">. c #FC736C",
",. c #FA786F",
"<. c #F86E70",
"1. c #E07070",
"2. c #E47974",
"3. c #F67373",
"4. c #FB7573",
"5. c #F17A77",
"6. c #FB7975",
"7. c #F37C7A",
"8. c #FB7D7B",
"9. c #D3837E",
"0. c #ED807F",
"q. c #EF887F",
"w. c #F88177",
"e. c #F7847B",
"r. c #FC827C",
"t. c #F4897F",
"y. c #D58682",
"u. c #D88481",
"i. c #D58B86",
"p. c #D88885",
"a. c #D58E8A",
"s. c #D69694",
"d. c #DA9594",
"f. c #DA9994",
"g. c #D69D99",
"h. c #DC9E9B",
"j. c #E08F88",
"k. c #FB8482",
"l. c #F08887",
"z. c #FC8A85",
"x. c #FA8688",
"c. c #F78B8A",
"v. c #FB8C89",
"b. c #F5928B",
"n. c #E39793",
"m. c #EE9C97",
"M. c #F69594",
"N. c #FA9491",
"B. c #F4A59F",
"V. c #DDA6A2",
"C. c #DFA8A6",
"Z. c #E1A9A6",
"A. c #F4A4A1",
"S. c #F9A5A3",
"D. c #F2A8A1",
"F. c #F7A6A8",
"G. c #F5ABAA",
"H. c #E0B1AD",
"J. c #E9B1AC",
"K. c #F6B0AC",
"L. c #FAB1AC",
"P. c #F6B4B1",
"I. c #F8B4B2",
"U. c #E6C3BD",
"Y. c #EAC5C3",
"T. c #F7C1C1",
"R. c #F8C4C2",
"E. c #F9CDCA",
"W. c None",
/* pixels */
"W.W.W.W.W.W.W.W.W.W.W.W.W.W.W.W.W.W.W.W.W.W.W.W.W.W.W.W.W.W.W.W.W.W.W.W.W.W.W.W.W.W.W.W.W.W.W.W.W.W.",
"W.W.W.W.W.W.W.W.W.W.W.W.W.W.W.W.W.W.W.W.W.W.W.W.W.W.W.W.W.W.W.W.W.W.W.W.W.W.W.W.W.W.W.W.W.W.W.W.W.W.",
"W.W.W.W.W.W.W.W.W.W.W.W.W.W.W.W.W.W.W.W.W.W.W.W.W.W.W.W.W.W.W.W.W.W.W.W.W.W.W.W.W.W.W.W.W.W.W.W.W.W.",
"W.W.W.W.W.W.W.W.W.W.W.W.W.W.W.W.W.W.W.W.W.W.W.W.W.W.W.W.W.W.W.W.W.W.W.W.W.W.W.W.W.W.W.W.W.W.W.W.W.W.",
"W.W.W.W.W.W.W.W.W.W.W.W.W.W.W.W.W.W.W.W.W.W.W.W.W.W.W.W.W.W.W.W.W.W.W.W.W.W.W.W.W.W.W.W.W.W.W.W.W.W.",
"W.W.W.W.W.W.W.W.W.W.W.W.W.W.W.W.W.W.W.W.W.W.W.W.W.W.W.W.W.W.W.W.W.W.W.W.W.W.W.W.W.W.W.W.W.W.W.W.W.W.",
"W.W.W.W.W.W.W.W.W.W.W.W.W.W.W.W.W.W.W.W.W.W.W.W.W.W.W.W.W.W.W.W.W.W.W.W.W.W.W.W.W.W.W.W.W.W.W.W.W.W.",
"W.W.W.W.W.W.W.W.W.W.W.W.W.W.W.W.W.W.W.W.W.W.W.W.W.W.W.W.W.W.W.W.W.W.W.W.W.W.W.W.W.W.W.W.W.W.W.W.W.W.",
"W.W.W.W.W.W.W.W.W.W.W.W.W.W.W.W.W.W.W.W.W.W.W.W.W.W.W.W.W.W.W.W.W.W.W.W.W.W.W.W.W.W.W.W.W.W.W.W.W.W.",
"W.W.W.W.W.W.W.W.W.W.W.W.W.W.W.W.W.W.W.W.W.W.W.W.W.W.W.W.W.W.W.W.W.W.W.W.W.W.W.W.W.W.W.W.W.W.W.W.W.W.",
"W.W.W.W.W.W.W.W.W.W.W.W.W.W.W.W.W.W.W.W.W.W.W.f.| i y.W.W.W.W.W.W.W.W.W.W.W.W.W.W.W.W.W.W.W.W.W.W.W.",
"W.W.W.W.W.W.W.W.W.W.W.W.W.W.W.W.W.W.W.W.W.W.M v X   $ Q u.W.W.W.W.W.W.W.W.W.W.W.W.W.W.W.W.W.W.W.W.W.",
"W.W.W.W.W.W.W.W.W.W.W.W.W.W.W.W.W.W.W.W.b f B B < . < y g p O.W.W.W.W.W.W.W.W.W.W.W.W.W.W.W.W.W.W.W.",
"W.W.W.W.W.W.W.W.W.W.W.W.W.W.W.W.W.W.] f 5 2 B V < X 3 S A B f n c W.W.W.W.W.W.W.W.W.W.W.W.W.W.W.W.W.",
"W.W.W.W.W.W.W.W.W.W.W.W.W.W.W.W.b u 1 7 8 B S 9 & X f o.S y A 9 > p | W.W.W.W.W.W.W.W.W.W.W.W.W.W.W.",
"W.W.W.W.W.W.W.W.W.W.W.W.W.W.W.} O o 2 9 I 1.l & 2 2 s c d y y y * + s X.W.W.W.W.W.W.W.W.W.W.W.W.W.W.",
"W.W.W.W.W.W.W.W.W.W.W.W.W.W. .: @ X @ < n n 5 t F J Z t & < < # # < 2 a W.W.W.W.W.W.W.W.W.W.W.W.W.W.",
"W.W.W.W.W.W.W.W.W.W.W.W.W.Y.- * y * X   # y Y Y T / ;.=.%.d + + 9 F T B [ W.W.W.W.W.W.W.W.W.W.W.W.W.",
"W.W.W.W.W.W.W.W.W.W.W.W.W.X.@ 9 y s O + S %.<.Y E =.>.8.k.6.9 1 Z K %.U w b W.W.W.W.W.W.W.W.W.W.W.W.",
"W.W.W.W.W.W.W.W.W.W.W.W.f.i 3 4 m +.$ A M.l.#.Y / >.k.z.k.6.R V B J %.%.6 u W.W.W.W.W.W.W.W.W.W.W.W.",
"W.W.W.W.W.W.W.W.W.W.W.W.x O < 3 ' ` g 0.G.7.Y E >.8.z.r.4.>.;.%.r V T U r & 9.W.W.W.W.W.W.W.W.W.W.W.",
"W.W.W.W.W.W.W.W.W.W.W.d.$   . O u > $.A.5.T Y %.r.v.r.4.>.>.r.8.G 2 B 6 & o j W.W.W.W.W.W.W.W.W.W.W.",
"W.W.W.W.W.W.W.W.W.W.W.f.X o o X X 2 ^ 3.R Y -.3.z.r.4.>.8.k.N.z.%.2 2 2 2 2 n V.V.W.W.W.W.W.W.W.W.W.",
"W.W.W.W.W.W.W.W.W.W.W.a.; = 1 e : 4 Y Y Y %.8.8.8.4.4.8.v.G.L.x.%.2 d D H P ' U.U.W.W.W.W.W.W.W.W.W.",
"W.W.W.W.W.W.W.W.W.W.W.W.k = 0 S l ; Y T <.8.3.;.>.8.v.v.S.R.M.4.t r t F w.N.} W.W.W.W.W.W.W.W.W.W.W.",
"W.W.W.W.W.W.W.W.W.W.W.W.b = 0 L +., T <.8.8.%.%.r.N.N.v.N.N.6.^ r r T T w.0.f.W.W.W.W.W.W.W.W.W.W.W.",
"W.W.W.W.W.W.W.W.W.W.W.W.x ; 8 B l % H <.8.<.-.6.N.R.I.v.v.r.=.J 1 1 t Z P r Y.W.W.W.W.W.W.W.W.W.W.W.",
"W.W.W.W.W.W.W.W.W.W.W.W.y.u + + @ @ y L -.3.k.c.L.E.A.z.r.>.T D t t 2 e 2 k W.W.W.W.W.W.W.W.W.W.W.W.",
"W.W.W.W.W.W.W.W.W.W.W.W.W.( o & d B 2 9 U 7.F.G.I.S.z.r.>.=.D V T T H r % 9.W.W.W.W.W.W.W.W.W.W.W.W.",
"W.W.W.W.W.W.W.W.W.W.W.W.W.W.> 6 D Y D t B #.M.M.N.z.6.>.&.J D T / *./ H | h.W.W.W.W.W.W.W.W.W.W.W.W.",
"W.W.W.W.W.W.W.W.W.W.W.W.W.W.) + D Y Y J 2 B 3.8.r.8.>.>.T t ^ =.,.e.*.g p.W.W.W.W.W.W.W.W.W.W.W.W.W.",
"W.W.W.W.W.W.W.W.W.W.W.W.W.W.W.v & B Y T Y B S ;.=.;./ T Z Y >.,.w.b.v [ W.W.W.W.W.W.W.W.W.W.W.W.W.W.",
"W.W.W.W.W.W.W.W.W.W.W.W.W.W.W.W.: & Y R T J 2 D T / T Z H / ,.t.t.! W W.W.W.W.W.W.W.W.W.W.W.W.W.W.W.",
"W.W.W.W.W.W.W.W.W.W.W.W.W.W.W.W.i.q 6 H ^ T Z 6 D Y Z Z / ,.t.B.j.Q W.W.W.W.W.W.W.W.W.W.W.W.W.W.W.W.",
"W.W.W.W.W.W.W.W.W.W.W.W.W.W.W.W.W.) > r ^ ^ J B t Z Z T ,.w.D.J...f.W.W.W.W.W.W.W.W.W.W.W.W.W.W.W.W.",
"W.W.W.W.W.W.W.W.W.W.W.W.W.W.W.W.W.W._ w d ~ ^ H r & T / t.B.Z.a.C.W.W.W.W.W.W.W.W.W.W.W.W.W.W.W.W.W.",
"W.W.W.W.W.W.W.W.W.W.W.W.W.W.W.W.W.W.W.W.a z ~ R t & ^ =.q.n.f.h.W.W.W.W.W.W.W.W.W.W.W.W.W.W.W.W.W.W.",
"W.W.W.W.W.W.W.W.W.W.W.W.W.W.W.W.W.W.W.W.W.] z L t & T P { 9.W.W.W.W.W.W.W.W.W.W.W.W.W.W.W.W.W.W.W.W.",
"W.W.W.W.W.W.W.W.W.W.W.W.W.W.W.W.W.W.W.W.W.W.d.c f > Q o.W.W.W.W.W.W.W.W.W.W.W.W.W.W.W.W.W.W.W.W.W.W.",
"W.W.W.W.W.W.W.W.W.W.W.W.W.W.W.W.W.W.W.W.W.W.W.W.a.W V.W.W.W.W.W.W.W.W.W.W.W.W.W.W.W.W.W.W.W.W.W.W.W.",
"W.W.W.W.W.W.W.W.W.W.W.W.W.W.W.W.W.W.W.W.W.W.W.W.d.( H.W.W.W.W.W.W.W.W.W.W.W.W.W.W.W.W.W.W.W.W.W.W.W.",
"W.W.W.W.W.W.W.W.W.W.W.W.W.W.W.W.W.W.W.W.W.W.W.W.W.W.W.W.W.W.W.W.W.W.W.W.W.W.W.W.W.W.W.W.W.W.W.W.W.W.",
"W.W.W.W.W.W.W.W.W.W.W.W.W.W.W.W.W.W.W.W.W.W.W.W.W.W.W.W.W.W.W.W.W.W.W.W.W.W.W.W.W.W.W.W.W.W.W.W.W.W.",
"W.W.W.W.W.W.W.W.W.W.W.W.W.W.W.W.W.W.W.W.W.W.W.W.W.W.W.W.W.W.W.W.W.W.W.W.W.W.W.W.W.W.W.W.W.W.W.W.W.W.",
"W.W.W.W.W.W.W.W.W.W.W.W.W.W.W.W.W.W.W.W.W.W.W.W.W.W.W.W.W.W.W.W.W.W.W.W.W.W.W.W.W.W.W.W.W.W.W.W.W.W.",
"W.W.W.W.W.W.W.W.W.W.W.W.W.W.W.W.W.W.W.W.W.W.W.W.W.W.W.W.W.W.W.W.W.W.W.W.W.W.W.W.W.W.W.W.W.W.W.W.W.W.",
"W.W.W.W.W.W.W.W.W.W.W.W.W.W.W.W.W.W.W.W.W.W.W.W.W.W.W.W.W.W.W.W.W.W.W.W.W.W.W.W.W.W.W.W.W.W.W.W.W.W.",
"W.W.W.W.W.W.W.W.W.W.W.W.W.W.W.W.W.W.W.W.W.W.W.W.W.W.W.W.W.W.W.W.W.W.W.W.W.W.W.W.W.W.W.W.W.W.W.W.W.W.",
"W.W.W.W.W.W.W.W.W.W.W.W.W.W.W.W.W.W.W.W.W.W.W.W.W.W.W.W.W.W.W.W.W.W.W.W.W.W.W.W.W.W.W.W.W.W.W.W.W.W.",
"W.W.W.W.W.W.W.W.W.W.W.W.W.W.W.W.W.W.W.W.W.W.W.W.W.W.W.W.W.W.W.W.W.W.W.W.W.W.W.W.W.W.W.W.W.W.W.W.W.W."
};
