/* XPM */
static char *result[] = {
/* columns rows colors chars-per-pixel */
"50 50 236 2 ",
"   c #9F1619",
".  c #A01513",
"X  c #A41718",
"o  c #AC1819",
"O  c #A81E1E",
"+  c #A72B2C",
"@  c #BA2222",
"#  c #BF2423",
"$  c #BD2525",
"%  c #BF2624",
"&  c #BD2726",
"*  c #BC2727",
"=  c #BD2727",
"-  c #BE2726",
";  c #BD2728",
":  c #BE2728",
">  c #BB2828",
",  c #BC2828",
"<  c #BC2829",
"1  c #BE2F2D",
"2  c #A83334",
"3  c #BD3030",
"4  c #BE3031",
"5  c #BD3132",
"6  c #BD3737",
"7  c #B53D3D",
"8  c #B83D3A",
"9  c #BF3C3B",
"0  c #C4211C",
"q  c #C02221",
"w  c #C32623",
"e  c #C72522",
"r  c #C42622",
"t  c #C42723",
"y  c #C92626",
"u  c #CA2B26",
"i  c #C22C2B",
"p  c #C32D2D",
"a  c #C32E2E",
"s  c #CC2B2B",
"d  c #CB2C29",
"f  c #CF2C29",
"g  c #CE2E2D",
"h  c #D02F2A",
"j  c #D02B2D",
"k  c #CF312F",
"l  c #D1312C",
"z  c #D3302D",
"x  c #D3312D",
"c  c #D0312E",
"v  c #C23030",
"b  c #C63435",
"n  c #C93330",
"m  c #CE3733",
"M  c #CB3335",
"N  c #CA3735",
"B  c #CA3C3A",
"V  c #CC3E3B",
"C  c #CE3E3A",
"Z  c #D23031",
"A  c #D53132",
"S  c #D23535",
"D  c #D23635",
"F  c #D03637",
"G  c #D73437",
"H  c #D93A36",
"J  c #D2383A",
"K  c #D43A38",
"L  c #D43A3B",
"P  c #D73C3B",
"I  c #D73B3D",
"U  c #D63B3F",
"Y  c #D63C3E",
"T  c #D73C3E",
"R  c #DD3C38",
"E  c #E03A3B",
"W  c #DF403B",
"Q  c #D13F41",
"!  c #AD4848",
"~  c #C24241",
"^  c #C24242",
"/  c #C04444",
"(  c #CD4443",
")  c #CB4645",
"_  c #CE4544",
"`  c #CE4949",
"'  c #CF4C4C",
"]  c #CD4E4D",
"[  c #CE4D4F",
"{  c #D14240",
"}  c #D64042",
"|  c #DB4543",
" . c #DD4541",
".. c #D84145",
"X. c #DD4645",
"o. c #DC4745",
"O. c #D64944",
"+. c #D64847",
"@. c #D44B49",
"#. c #D7484A",
"$. c #D74C48",
"%. c #D04E4F",
"&. c #D74E4D",
"*. c #D0524E",
"=. c #D74F51",
"-. c #C65656",
";. c #CF5251",
":. c #C85552",
">. c #CD5452",
",. c #CE5654",
"<. c #CE5755",
"1. c #D25250",
"2. c #D15352",
"3. c #D15353",
"4. c #D75452",
"5. c #D65354",
"6. c #D15655",
"7. c #DD5253",
"8. c #D35857",
"9. c #DF5955",
"0. c #D35759",
"q. c #D15B59",
"w. c #D55C59",
"e. c #D15F5E",
"r. c #D35F5F",
"t. c #D85B5B",
"y. c #D85D5E",
"u. c #E14849",
"i. c #E54B4A",
"p. c #ED4E4C",
"a. c #E6524E",
"s. c #EB504C",
"d. c #F0514F",
"f. c #E25051",
"g. c #EA5552",
"h. c #EE5753",
"j. c #F15853",
"k. c #CB6464",
"l. c #CC6E6D",
"z. c #D26262",
"x. c #D56161",
"c. c #D56261",
"v. c #D46263",
"b. c #D66766",
"n. c #D5686A",
"m. c #D5696B",
"M. c #D76A6A",
"N. c #D76A6B",
"B. c #D76F6E",
"V. c #DB6869",
"C. c #D4706E",
"Z. c #DE706E",
"A. c #CD7474",
"S. c #C57C7C",
"D. c #D77171",
"F. c #D77372",
"G. c #D97374",
"H. c #D87775",
"J. c #DD7774",
"K. c #DB7977",
"L. c #D47F7C",
"P. c #DB7B79",
"I. c #DD7F7B",
"U. c #E0726F",
"Y. c #C57F81",
"T. c #D27F80",
"R. c #DF7D80",
"E. c #D28686",
"W. c #DA8685",
"Q. c #DB8587",
"!. c #DA8787",
"~. c #DB8887",
"^. c #D48A8B",
"/. c #DE8B8B",
"(. c #DF8E8C",
"). c #CB9190",
"_. c #D79291",
"`. c #DF9392",
"'. c #DE9595",
"]. c #DF9796",
"[. c #DA9D9C",
"{. c #DB9F9F",
"}. c #E18987",
"|. c #E48D8A",
" X c #E09F9E",
".X c #E49C9E",
"XX c #EA9F9E",
"oX c #DEA5A4",
"OX c #DFAAAB",
"+X c #E1A1A0",
"@X c #E5A1A0",
"#X c #E5A4A3",
"$X c #E7A5A3",
"%X c #E1A5A4",
"&X c #EBA7A4",
"*X c #E4A8A7",
"=X c #E4A7A9",
"-X c #E3A9A8",
";X c #E4A9A8",
":X c #E2AEAB",
">X c #E7ACAB",
",X c #E7AEAB",
"<X c #E7AFAF",
"1X c #E6B0AF",
"2X c #E4B2B0",
"3X c #E7B6B3",
"4X c #EBB9B7",
"5X c #E5BFBD",
"6X c #EABCBB",
"7X c #ECBCBA",
"8X c #F1B6B4",
"9X c #E8C1BE",
"0X c #EFC1BF",
"qX c #EBBEC0",
"wX c #E7C1C1",
"eX c #EBC3C5",
"rX c #ECC7C5",
"tX c #EAC8C6",
"yX c #EECACA",
"uX c #EDCDCC",
"iX c #EECDCF",
"pX c #F0CDCC",
"aX c #EFD5D2",
"sX c #F0D5D4",
"dX c #F2D9DA",
"fX c #F2DCDB",
"gX c #F6E2E2",
"hX c #F6E4E5",
"jX c #F7E8E8",
"kX c #F7E9E8",
"lX c #FAF3F1",
"zX c #FAF3F3",
"xX c #FBF9F8",
"cX c gray99",
"vX c #FDFEFD",
"bX c None",
/* pixels */
"bXbXbXbXbXbXbXbXbXbXbXbXbXbXbXbXbXbXbXbXbXbXbXbXbXbXbXbXbXbXbXbXbXbXbXbXbXbXbXbXbXbXbXbXbXbXbXbXbXbX",
"bXbXbXbXbXbXbXbXbXbXbXbXbXbXbXbXbXbXbXbXbXbXbXbXbXbXbXbXbXbXbXbXbXbXbXbXbXbXbXbXbXbXbXbXbXbXbXbXbXbX",
"bXbXbXbXbXbXbXbXbXbXbXbXbXbXbXbXbXbXbXbXbXbXbXbXbXbXbXbXbXbXbXbXbXbXbXbXbXbXbXbXbXbXbXbXbXbXbXbXbXbX",
"bXbXbXbXbXbXbXbXbXbXbXbXbXbXbXbXbXbXbXbXbXbXbXbXbXbXbXbXbXbXbXbXbXbXbXbXbXbXbXbXbXbXbXbXbXbXbXbXbXbX",
"bXbXbXbXbXbXbXbXbXbXbXbXbXbXbXbXbXbXbXbXbXbXbXbXbXbXbXbXbXbXbXbXbXbXbXbXbXbXbXbXbXbXbXbXbXbXbXbXbXbX",
"bXbXbXbXbXbXbXbXbXbXbXbXbXbXbXbXbXbXbXbXbXbXbXbXbXbXbXbXbXbXbXbXbXbXbXbXbXbXbXbXbXbXbXbXbXbXbXbXbXbX",
"bXbXbXbXbXbXbXbXbXbXbXbXbXbXbXbXbXbXbXbXbXbXbXbXbXbXbXbXbXbXbXbXbXbXbXbXbXbXbXbXbXbXbXbXbXbXbXbXbXbX",
"bXbXbXbXbXbXbXbXbXbXbXbXbXbXbXbXbXbXbXbXbXbXbXbXbXbXbXbXbXbXbXbXbXbXbXbXbXbXbXbXbXbXbXbXbXbXbXbXbXbX",
"bXbXbXbXbXbXbXbXbXbXbXbXbXbXbXbXbXbXbXbXbXbXbXbXbXbXbXbXbXbXbXbXbXbXbXbXbXbXbXbXbXbXbXbXbXbXbXbXbXbX",
"bXbXbXbXbXbXbXbXbXbXbXbXbXbXbXbXbXbXbXbXbXbXbXbXbXbXbXbXbXbXbXbXbXbXbXbXbXbXbXbXbXbXbXbXbXbXbXbXbXbX",
"bXbXbXbXbXbXbXbXbXbXbXbXbXbXbXbXbXbXbXbXbXbXbXbXbXbXbXbXbXbXbXbXbXbXbXbXbXbXbXbXbXbXbXbXbXbXbXbXbXbX",
"bXbXbXbXbXbXbXbXbXbXbXbXbXbXbXbXbXbXbXbXbXbXbXbXbXbXbXbXbXbXbXbXbXbXbXbXbXbXbXbXbXbXbXbXbXbXbXbXbXbX",
"bXbXbXbXbXbXbXbXbXbXbXbXbXbXbXbXbXbXbXbXbXbXbXbXbXbXbXbXbXbXbXbXbXbXbXbXbXbXbXbXbXbXbXbXbXbXbXbXbXbX",
"bXbXbXbXbXbXbXbXbXbXbXbXbXbXbXbXbXbXbXbXbXbXbXbXbXbXbXbXbXbXbXbXbXbXbXbXbXbXbXbXbXbXbXbXbXbXbXbXbXbX",
"bXbXbXbXbXbXbXbXbXbXbXbXbXbXbXbXbXbXbXbXbXY.! + 8 :XbXbXbXbXbXbXbXbXbXbXbXbXbXbXbXbXbXbXbXbXbXbXbXbX",
"bXbXbXbXbXbXbXbXbXbXbXbXbXbXbXbXbXbXbXbXS.2 . @ d W.bXbXbXbXbXbXbXbXbXbXbXbXbXbXbXbXbXbXbXbXbXbXbXbX",
"bXbXbXbXbXbXbXbXbXbXbXbXbXbXbXbXbXbX).2   o A E x 4.1XbXbXbXbXbXbXbXbXbXbXbXbXbXbXbXbXbXbXbXbXbXbXbX",
"bXbXbXbXbXbXbXbXbXbXbXbXbXbXbXbXbXE.7 X O b f.o.u K }.bXbXbXbXbXbXbXbXbXbXbXbXbXbXbXbXbXbXbXbXbXbXbX",
"bXbXbXbXbXbXbXbXbXbXbXbXbXbXbXbX<X0.M a 1 [ &.C N k J.uXbXbXbXbXbXbXbXbXbXbXbXbXbXbXbXbXbXbXbXbXbXbX",
"bXbXbXbXbXbXbXbXbXbXbXbXbXbXbXbX.X#.U S Z y.>.` ' _ ] +XbXbXbXbXbXbXbXbXbXbXbXbXbXbXbXbXbXbXbXbXbXbX",
"bXbXbXbXbXbXbXbXbXbXbXbXbXbXbXbXR.} I g G 5.%XQ.M.x.;.`.bXbXbXbXbXbXbXbXbXbXbXbXbXbXbXbXbXbXbXbXbXbX",
"bXbXbXbXbXbXbXbXbXbXbXbXbXbXbXbXV.T P s ..m.iXeX@XG.6.K.bXbXbXbXbXbXbXbXbXbXbXbXbXbXbXbXbXbXbXbXbXbX",
"bXbXbXbXbXbXbXbXbXbXbXbXbXbXbXqX=.Y L e B C.gXzXjX6X!.N.aXbXbXbXbXbXbXbXbXbXbXbXbXbXbXbXbXbXbXbXbXbX",
"bXbXbXbXbXbXbXbXbXbXbXbXbXbXbX#XQ J F 0 t <.fXxXcXdX'.z.-XbXbXbXbXbXbXbXbXbXbXbXbXbXbXbXbXbXbXbXbXbX",
"bXbXbXbXbXbXbXbXbXbXbXbXbXbXbX Xv p i f { L.sXlXvXgX=Xn.*XbXbXbXbXbXbXbXbXbXbXbXbXbXbXbXbXbXbXbXbXbX",
"bXbXbXbXbXbXbXbXbXbXbXbXbXbXbX{.5 , ; D 7.) P.7XkXhX>Xc.,XbXbXbXbXbXbXbXbXbXbXbXbXbXbXbXbXbXbXbXbXbX",
"bXbXbXbXbXbXbXbXbXbXbXbXbXbXbXwX^ < = j u.*.b./.rXyX(.,.2XbXbXbXbXbXbXbXbXbXbXbXbXbXbXbXbXbXbXbXbXbX",
"bXbXbXbXbXbXbXbXbXbXbXbXbXbXbXbX-.> * y z n q.F.3X;XB.e.bXbXbXbXbXbXbXbXbXbXbXbXbXbXbXbXbXbXbXbXbXbX",
"bXbXbXbXbXbXbXbXbXbXbXbXbXbXbXbXT.3 , q h R 2.~.].v.t.XXbXbXbXbXbXbXbXbXbXbXbXbXbXbXbXbXbXbXbXbXbXbX",
"bXbXbXbXbXbXbXbXbXbXbXbXbXbXbXbXoX~ ; % H p.@.H.D.3.Z.8XbXbXbXbXbXbXbXbXbXbXbXbXbXbXbXbXbXbXbXbXbXbX",
"bXbXbXbXbXbXbXbXbXbXbXbXbXbXbXbX5Xk.< - c d.X.8.r.1.|.bXbXbXbXbXbXbXbXbXbXbXbXbXbXbXbXbXbXbXbXbXbXbX",
"bXbXbXbXbXbXbXbXbXbXbXbXbXbXbXbXbX_.6 ; w W s.+.%.w.&XbXbXbXbXbXbXbXbXbXbXbXbXbXbXbXbXbXbXbXbXbXbXbX",
"bXbXbXbXbXbXbXbXbXbXbXbXbXbXbXbXbXbXl.: # l j.| ( I.0XbXbXbXbXbXbXbXbXbXbXbXbXbXbXbXbXbXbXbXbXbXbXbX",
"bXbXbXbXbXbXbXbXbXbXbXbXbXbXbXbXbXbXOX4 & r h.i.V $XbXbXbXbXbXbXbXbXbXbXbXbXbXbXbXbXbXbXbXbXbXbXbXbX",
"bXbXbXbXbXbXbXbXbXbXbXbXbXbXbXbXbXbXbX^.9 $  .g.O.4XbXbXbXbXbXbXbXbXbXbXbXbXbXbXbXbXbXbXbXbXbXbXbXbX",
"bXbXbXbXbXbXbXbXbXbXbXbXbXbXbXbXbXbXbXbXA./ m a.9.pXbXbXbXbXbXbXbXbXbXbXbXbXbXbXbXbXbXbXbXbXbXbXbXbX",
"bXbXbXbXbXbXbXbXbXbXbXbXbXbXbXbXbXbXbXbXbX[.:.$.U.bXbXbXbXbXbXbXbXbXbXbXbXbXbXbXbXbXbXbXbXbXbXbXbXbX",
"bXbXbXbXbXbXbXbXbXbXbXbXbXbXbXbXbXbXbXbXbXbXbX9XtXbXbXbXbXbXbXbXbXbXbXbXbXbXbXbXbXbXbXbXbXbXbXbXbXbX",
"bXbXbXbXbXbXbXbXbXbXbXbXbXbXbXbXbXbXbXbXbXbXbXbXbXbXbXbXbXbXbXbXbXbXbXbXbXbXbXbXbXbXbXbXbXbXbXbXbXbX",
"bXbXbXbXbXbXbXbXbXbXbXbXbXbXbXbXbXbXbXbXbXbXbXbXbXbXbXbXbXbXbXbXbXbXbXbXbXbXbXbXbXbXbXbXbXbXbXbXbXbX",
"bXbXbXbXbXbXbXbXbXbXbXbXbXbXbXbXbXbXbXbXbXbXbXbXbXbXbXbXbXbXbXbXbXbXbXbXbXbXbXbXbXbXbXbXbXbXbXbXbXbX",
"bXbXbXbXbXbXbXbXbXbXbXbXbXbXbXbXbXbXbXbXbXbXbXbXbXbXbXbXbXbXbXbXbXbXbXbXbXbXbXbXbXbXbXbXbXbXbXbXbXbX",
"bXbXbXbXbXbXbXbXbXbXbXbXbXbXbXbXbXbXbXbXbXbXbXbXbXbXbXbXbXbXbXbXbXbXbXbXbXbXbXbXbXbXbXbXbXbXbXbXbXbX",
"bXbXbXbXbXbXbXbXbXbXbXbXbXbXbXbXbXbXbXbXbXbXbXbXbXbXbXbXbXbXbXbXbXbXbXbXbXbXbXbXbXbXbXbXbXbXbXbXbXbX",
"bXbXbXbXbXbXbXbXbXbXbXbXbXbXbXbXbXbXbXbXbXbXbXbXbXbXbXbXbXbXbXbXbXbXbXbXbXbXbXbXbXbXbXbXbXbXbXbXbXbX",
"bXbXbXbXbXbXbXbXbXbXbXbXbXbXbXbXbXbXbXbXbXbXbXbXbXbXbXbXbXbXbXbXbXbXbXbXbXbXbXbXbXbXbXbXbXbXbXbXbXbX",
"bXbXbXbXbXbXbXbXbXbXbXbXbXbXbXbXbXbXbXbXbXbXbXbXbXbXbXbXbXbXbXbXbXbXbXbXbXbXbXbXbXbXbXbXbXbXbXbXbXbX",
"bXbXbXbXbXbXbXbXbXbXbXbXbXbXbXbXbXbXbXbXbXbXbXbXbXbXbXbXbXbXbXbXbXbXbXbXbXbXbXbXbXbXbXbXbXbXbXbXbXbX",
"bXbXbXbXbXbXbXbXbXbXbXbXbXbXbXbXbXbXbXbXbXbXbXbXbXbXbXbXbXbXbXbXbXbXbXbXbXbXbXbXbXbXbXbXbXbXbXbXbXbX",
"bXbXbXbXbXbXbXbXbXbXbXbXbXbXbXbXbXbXbXbXbXbXbXbXbXbXbXbXbXbXbXbXbXbXbXbXbXbXbXbXbXbXbXbXbXbXbXbXbXbX"
};
