/* XPM */
static char *f6dcf846985b409cc2ad36a1bef86a0aFDHtJ3jqEv6QDRUn[] = {
/* columns rows colors chars-per-pixel */
"50 50 183 2 ",
"   c None",
".  c #000000",
"X  c #0D0402",
"o  c #00000C",
"O  c #070B01",
"+  c #140301",
"@  c #130A04",
"#  c #1B0D07",
"$  c #160808",
"%  c #001200",
"&  c #1E150C",
"*  c #151000",
"=  c #000015",
"-  c #050C15",
";  c #141415",
":  c #12191F",
">  c #240000",
",  c #2A0100",
"<  c #200F08",
"1  c #350700",
"2  c #25120A",
"3  c #241C0D",
"4  c #2B190E",
"5  c #33190E",
"6  c #22001C",
"7  c #271B12",
"8  c #361D11",
"9  c #391D11",
"0  c #192309",
"q  c #2E2217",
"w  c #3A2A1B",
"e  c #372618",
"r  c #383716",
"t  c #2C2C0D",
"y  c #000022",
"u  c #000036",
"i  c #2A2A29",
"p  c #38322E",
"a  c #343736",
"s  c #4F1E0F",
"d  c #511C0C",
"f  c #460D02",
"g  c #562B00",
"h  c #593100",
"j  c #442315",
"k  c #4E2919",
"l  c #532C1B",
"z  c #572615",
"x  c #59301D",
"c  c #6E3F00",
"v  c #602F1C",
"b  c #483624",
"n  c #5F3C33",
"m  c #57322E",
"M  c #653622",
"N  c #6D3A24",
"B  c #6A3721",
"V  c #733E27",
"C  c #733F28",
"Z  c #37410D",
"A  c #47471B",
"S  c #535D1B",
"D  c #51521F",
"F  c #754A04",
"G  c #6F4A1D",
"H  c #57621C",
"J  c #4C4B20",
"K  c #57412C",
"L  c #525220",
"P  c #5D5E24",
"I  c #5D4630",
"U  c #49413C",
"Y  c #764029",
"T  c #7B442B",
"R  c #694E34",
"E  c #694937",
"W  c #75563B",
"Q  c #6D5238",
"!  c #69692A",
"~  c #6D7527",
"^  c #676530",
"/  c #797932",
"(  c #000043",
")  c #000843",
"_  c #003446",
"`  c #002D5B",
"'  c #023159",
"]  c #1B2E45",
"[  c #273746",
"{  c #2A425E",
"}  c #2A4564",
"|  c #2E4866",
" . c #314C6B",
".. c #434544",
"X. c #565858",
"o. c #7F5F42",
"O. c #585E62",
"+. c #5A6368",
"@. c #686A6B",
"#. c #757575",
"$. c #8B5B1E",
"%. c #81462C",
"&. c #85492E",
"*. c #884A2F",
"=. c #835824",
"-. c #874B30",
";. c #884C30",
":. c #895F32",
">. c #9A6C3C",
",. c #94642C",
"<. c #A0703D",
"1. c #856345",
"2. c #896644",
"3. c #8C6B48",
"4. c #946E4E",
"5. c #9F744A",
"6. c #9C7551",
"7. c #9E7852",
"8. c #996953",
"9. c #A17241",
"0. c #A26F57",
"q. c #A37B56",
"w. c #858435",
"e. c #96983C",
"r. c #9AA03B",
"t. c #AC825A",
"y. c #B2855D",
"u. c #B6885F",
"i. c #BBBC4E",
"p. c #A6A743",
"a. c #BB8D62",
"s. c #C28E5C",
"d. c #C18D64",
"f. c #C39366",
"g. c #C69569",
"h. c #CB976B",
"j. c #CD9A6D",
"k. c #D49E6D",
"l. c #D39B66",
"z. c #D59C71",
"x. c #DBA474",
"c. c #D5A070",
"v. c #E0A977",
"b. c #E5AD7A",
"n. c #EBAF7E",
"m. c #ECB17D",
"M. c #F0B57F",
"N. c #CBCC55",
"B. c #D8D85B",
"V. c #EAEA63",
"C. c #F6F668",
"Z. c #FEFD6C",
"A. c #F1F166",
"S. c #FFFF71",
"D. c #767F84",
"F. c #788288",
"G. c #828282",
"H. c #878C8E",
"J. c #868C90",
"K. c #95999B",
"L. c #9DA3A7",
"P. c #A2A2A1",
"I. c #A9AAAB",
"U. c #B7B9BA",
"Y. c #ADB2B5",
"T. c #EFB480",
"R. c #F2B681",
"E. c #F5B983",
"W. c #FCBE86",
"Q. c #FFC087",
"!. c #FFC48A",
"~. c #FFC98E",
"^. c #C2C4C5",
"/. c #CDCDCC",
"(. c #C7C9CA",
"). c #CFCFD0",
"_. c #CFD2D3",
"`. c #D3D4D4",
"'. c #D8D9DA",
"]. c #E3E3E3",
"[. c #E9E9E9",
"{. c #F3F3F3",
"}. c #FFFFFF",
/* pixels */
"                                                                                                    ",
"                                                                                                    ",
"                                                                                                    ",
"                                                                                                    ",
"                                        . . . . . . . .                                             ",
"                                  X . . . 5 j l l j 5 @ . . . .                                     ",
"                                . . 9 M T %.&.&.%.*.%.T N x 9 . . .                                 ",
"                            @ . # B %.*.%.%.T %.%.T %.%.&.*.%.C k . .                               ",
"                            . 5 T &.%.%.-.-.-.-.*.*.;.;.;.*.%.%.&.V < .                             ",
"                          . 2 T %.T *.*.N f + . . . . , d C *.*.T &.C 2 .                           ",
"                        X . B &.%.-.M . b 3.a.j.j.j.g.t.1.7 . B -.%.&.V . .                         ",
"                        . 9 T &.T . b d.R.~.!.!.~.!.!.!.!.m.t.w X Y &.&.l .                         ",
"                      X . M *.C . 6.R.~.Q.Q.Q.Q.Q.W.Q.W.Q.!.~.m.7.. N -.T $ .                       ",
"                      . # %.T . a.Q.Q.W.W.Q.Q.Q.Q.Q.Q.Q.W.W.Q.Q.!.f.. N &.j .                       ",
"                      . l ;.. q.!.W.W.Q.~.Q.Q.Q.Q.Q.W.Q.~.~.Q.W.W.!.a.. *.M .                       ",
"                    X . C z I W.Q.!.~.E.h.g.Q.W.Q.Q.W.W.d.x.Q.~.~.!.Q.W s T . .                     ",
"                    . # T . f.~.Q.x.<.1 . >.W.Q.W.W.W.Q.R . h ,.s.b.Q.h.. T # .                     ",
"                    . 9 B w R.W.2.. D.I.P.X.G T.Q.Q.W.5.U I.^.I.+.. h.R.7 N 8 .                     ",
"                    . e z Q !.x.. `.}.}.}.{.F.:.~.~.a._ [.}.}.}.}.D.5.!.K v 5 .                     ",
"                    . 4 + 1.~.>.J.}.'.U.}.}.]., T.~.F U.}./.I.{.}._.g E.Q k 4 .                     ",
"                      @ . 1.~.$.Y.}.G.. (.}.[.q m.~.F (.}.G.. `.}.'.h E.K > # .                     ",
"                    . 7 2.R ~.9.F.}.[.^.{.}.(.g W.~.3.F.}.{.`.}.}.L.=.m.7 q .                       ",
"                    . w x.b b.R.> K.{.}.}.`.[ W j.W.x., L.{.}.}.^.. b.a.o.f..                       ",
"                      . q.R 7.~.b.=.q +.O.> g.4.Q I z.T.F p @.X.1 j.Q.w a.t..                       ",
"                      . . . . x.~.!.m.l.k.R.~.g.. 3.E.Q.!.n.l.k.E.~.t.. w . X                       ",
"                          2 . K m.!.!.!.~.~.Q.!.W.~.~.!.~.Q.!.!.~.h.. @ .                           ",
"                            7 . 6 x.!.!.W.b.a.4.2.1.1.6.z.Q.!.Q.y.. O                               ",
"                            . / i.A q.m.Q.q.o.y.g.g.d.7.t.W.c.W S P .                               ",
"                            . L p.! . . Q 8.z.T.m.m.m.z.0.n % Z Z.N.. t                             ",
"                            3 . m 8.. N.N.e.~ S P P S ~ r.B.B.A Z.Z.D .                             ",
"                              . 3.f.. A.S.Z.Z.Z.Z.Z.Z.Z.S.Z.V.r B.C.e..                             ",
"                              @ . . A A.Z.Z.Z.Z.Z.Z.Z.Z.Z.Z.C.r 0 w % .                             ",
"                                  . L C.S.Z.Z.Z.Z.Z.Z.Z.Z.S.i.= k.j.. X                             ",
"                                  . Z A.Z.C.Z.Z.Z.Z.Z.Z.Z.Z.H f.~.!.R .                             ",
"                                  . . r J L P ! ! ! w.w./ ^ . y.Q.x.& .                             ",
"                                    . = ` ` ` u . . o ( ( = . . I & .                               ",
"                                    . : } }  .[ * . U ..a @.i . . .                                 ",
"                                    . - [ } } ] @ . @.].}.`.. .                                     ",
"                                    . o  . . .[ . ; . #.P.i .                                       ",
"                                      @ = u ) y .     . . .                                         ",
"                                    ; . G.H.#.@.. ;                                                 ",
"                                      . K.].).#..                                                   ",
"                                      ; . . . . ;                                                   ",
"                                                                                                    ",
"                                                                                                    ",
"                                                                                                    ",
"                                                                                                    ",
"                                                                                                    ",
"                                                                                                    ",
"                                                                                                    "
};
