/* XPM */
static char *d4942f59f5ff483be6fc867ffc592dd2AufaQZfiBMAvSatX[] = {
/* columns rows colors chars-per-pixel */
"50 50 200 2 ",
"   c None",
".  c #000000",
"X  c #0B0402",
"o  c #00000E",
"O  c #130201",
"+  c #150C06",
"@  c #1A0E08",
"#  c #1A0804",
"$  c #001D00",
"%  c #141203",
"&  c #1C1702",
"*  c #000014",
"=  c #00001B",
"-  c #161616",
";  c #0A131E",
":  c #320000",
">  c #3B0200",
",  c #3A0B04",
"<  c #261B0E",
"1  c #29150B",
"2  c #31190E",
"3  c #250919",
"4  c #261B11",
"5  c #391D11",
"6  c #24240B",
"7  c #36281B",
"8  c #25290F",
"9  c #00022C",
"0  c #000022",
"q  c #041729",
"w  c #000033",
"e  c #00003C",
"r  c #360023",
"t  c #1A283A",
"y  c #002A3C",
"u  c #282B2C",
"i  c #28343E",
"p  c #303133",
"a  c #430F00",
"s  c #49190B",
"d  c #441F11",
"f  c #511C0D",
"g  c #532E00",
"h  c #452415",
"j  c #4C2818",
"k  c #542414",
"l  c #532D1C",
"z  c #582F1D",
"x  c #4A3011",
"c  c #5D321F",
"v  c #553918",
"b  c #693E00",
"n  c #653B00",
"m  c #612F1C",
"M  c #6A341F",
"N  c #430D27",
"B  c #50242E",
"V  c #443323",
"C  c #4B3927",
"Z  c #583427",
"A  c #433C38",
"S  c #643521",
"D  c #6B3924",
"F  c #723D27",
"G  c #753F28",
"H  c #1F4000",
"J  c #214100",
"K  c #444A18",
"L  c #465313",
"P  c #764A00",
"I  c #754C16",
"U  c #5F6A1F",
"Y  c #4F4C20",
"T  c #55402B",
"R  c #5C452F",
"E  c #595924",
"W  c #5E4630",
"Q  c #4D453E",
"!  c #764229",
"~  c #7B432B",
"^  c #734D20",
"/  c #644B33",
"(  c #664A35",
")  c #71553B",
"_  c #75593E",
"`  c #6C5037",
"'  c #666C25",
"]  c #71702D",
"[  c #000042",
"{  c #001D4B",
"}  c #19334E",
"|  c #293A4E",
" . c #26405E",
".. c #2F4967",
"X. c #274464",
"o. c #344B65",
"O. c #344D6A",
"+. c #4D4D4C",
"@. c #414141",
"#. c #565656",
"$. c #7C5D41",
"%. c #7D5544",
"&. c #665B54",
"*. c #495A63",
"=. c #5C6469",
"-. c #6C6E6F",
";. c #636567",
":. c #6E7478",
">. c #757575",
",. c #82472D",
"<. c #84492E",
"1. c #884A2F",
"2. c #845927",
"3. c #874B30",
"4. c #884B30",
"5. c #8A5F31",
"6. c #986B3D",
"7. c #845C46",
"8. c #905F4E",
"9. c #846345",
"0. c #8D6A49",
"q. c #8A6644",
"w. c #926A4E",
"e. c #98714E",
"r. c #9B6954",
"t. c #9D7552",
"y. c #A57543",
"u. c #A37A55",
"i. c #AB785B",
"p. c #B07F5D",
"a. c #8C8C3A",
"s. c #858536",
"d. c #919738",
"f. c #B7875B",
"g. c #A9A945",
"h. c #B0AF45",
"j. c #BBBD4C",
"k. c #B7B849",
"l. c #BEBD50",
"z. c #AFB445",
"x. c #BC8C62",
"c. c #B78A61",
"v. c #C7915D",
"b. c #C39366",
"n. c #C79469",
"m. c #CC996B",
"M. c #C9976A",
"N. c #D39E6C",
"B. c #D99F69",
"V. c #D39F72",
"C. c #DAA16B",
"Z. c #D6A171",
"A. c #DAA574",
"S. c #DFA876",
"D. c #E2A977",
"F. c #E5AC79",
"G. c #E5AB7A",
"H. c #ECB17D",
"J. c #F0B57F",
"K. c #C1C44F",
"L. c #C7C752",
"P. c #CCCD53",
"I. c #D4D559",
"U. c #DADB5A",
"Y. c #D2D556",
"T. c #E8E862",
"R. c #F6F568",
"E. c #FDFD6D",
"W. c #F2F267",
"Q. c #FFFF71",
"!. c #747D81",
"~. c #788186",
"^. c #858484",
"/. c #8D8D8D",
"(. c #878D91",
"). c #979C9F",
"_. c #969DA0",
"`. c #9CA2A4",
"'. c #A8A9AB",
"]. c #ABB0B2",
"[. c #B6B6B6",
"{. c #B9BABB",
"}. c #F5B982",
"|. c #FCBE86",
" X c #F2B781",
".X c #FFC087",
"XX c #FFC48A",
"oX c #FFC98D",
"OX c #BEC1C3",
"+X c #C4C4C4",
"@X c #CDCDCD",
"#X c #C7C8C8",
"$X c #D9D9D8",
"%X c #E3E3E3",
"&X c #ECECEC",
"*X c #F5F6F6",
"=X c white",
"-X c #FEFEFE",
";X c #FDFDFD",
":X c #FFFEFE",
/* pixels */
"                                                                                                    ",
"                                                                                                    ",
"                                                                                                    ",
"                                                                                                    ",
"                                                                                                    ",
"                                                                                                    ",
"                                                                                                    ",
"                                                                                                    ",
"                                                                                                    ",
"                                                                                                    ",
"                                                                                                    ",
"                                              . .                                                   ",
"                                  . . . . . @ 1 @ . . . . . .                                       ",
"                              . . . 5 z D ! ! ~ ~ ! F S l 5 + . . .                                 ",
"                          O . X l F <.<.<.,.,.,.,.,.,.1.,.,.! S h . . O                             ",
"                        X . 2 ! ,.,.,.<.4.4.<.<.<.<.<.4.4.<.<.,.<.! h . .                           ",
"                      X . h ~ <.,.<.<.D f : X O O O O : f M ,.4.<.,.,.c . .                         ",
"                      . 2 ,.,.<.,.k . C 0.x.V.A.A.A.N.c.w.R . > ~ 4.,.,.S . .                       ",
"                    . . D <.<.S . ) M.}..XoXXXoX.XXXXXXXXX|.Z.0.. , ~ <.<.z . O                     ",
"                    . h ,.<.5 8 b.|.XX.X|.|.|..X|.|..X.X|..XXXXXF.9.. D <.! 1 .                     ",
"                  X . D <., T F.XX.X|..XoX.X.X.X.X.X.X.XXXXX.X|.XX.Xx.. D 1.z .                     ",
"                  . 2 ,.k C H.XX.XoXXXG.V.}..X.X.X.X.X|.A.D..XoXXXXXoXx.. ~ F . .                   ",
"                  . S ! . Z.oX.XH.f.2.. v }.oX|..X.X.XXXe.. P y.b.F.|..X9.: <.2 .                   ",
"                . . ! > 9.XXF.q.. =.(.^.&.^ Z..X|..X|.b.v >.`._.:.- x H.A.. ~ h .                   ",
"                . 1 ! . n.oXe.w @X-X-X-X*X].. D..XoXn.9 @X-X-X-X-X%Xy x..XC m c .                   ",
"                . 2 D 4 F.|.: +X-X%X@X;X-X-X!.y.oX|.n '.-X&X{.%X-X-X'.P .X_ k Z .                   ",
"                . @ h V  XH.. %X-X>.. +X-X-X).5.oX|.a +X-X[.. ^.-X-X[.b .X) k l .                   ",
"                  . . 7 H.}.. #X-X$X[.&X-X;X*.f.oX|.2.(.-X;X+X&X-X-X~.6.oX/ . 2 .                   ",
"                X . c.7 m.oXc.q OX*X-X-X&X(.g V.}.oXF.. `.&X-X-X*X`.. H.G.4 $.. X                   ",
"                @ . A.e.0.XX|.m.b Q ;.-.A 5.S.C n.u.H.H.2.V =.:.+.I S.oXt.9.G.. .                   ",
"                  . T 9.. S.oX.X.XH.C.C.H.oX XV . W  XXXoX XC.B.G.|.oXD.. u.t.. %                   ",
"                    . . . (  XXX|.|.oXoX.X.XoXH.m.|.oX.X.X.XXX.X|.oX}.` . . . X                     ",
"                        < . ( H.|.|.|.|.|.}.S.M.n.x.n.Z. X|.|.|.oX X) . <                           ",
"                          4 . o x.|.oXoXM.V R $.0.0.9.W $.}.oX}.x.3 . @                             ",
"                          . Y j.' ( c.S.S. X|.oXoXoXoXXX XS.f.Z L I.l.. 8                           ",
"                          . h.Q.Q.J U ' ( 7.8.r.i.r.8.7.( E d.8 l.Q.E.E .                           ",
"                        % . g.I.L.& W.E.T.P.j.k.g.z.k.K.U.R.Q.a.s.I.L.] .                           ",
"                          + . B r L W.E.E.Q.E.E.Q.Q.Q.Q.E.E.E.g.. %.3 . %                           ",
"                          4 . A.x.8 R.E.E.E.E.E.E.E.E.E.E.E.E.K.r .X0..                             ",
"                          4 . F.b.H E.Q.E.E.Q.E.Q.Q.E.E.E.Q.Q.I.r .Xe..                             ",
"                            . 9.7.$ g.h.k.j.L.L.L.I.U.I.I.P.k.d.3 u.T .                             ",
"                            + . . . . e e e w . . . o 9 9 w = . . . .                               ",
"                                  . 6 O.O.O.o.u & & i o.o.o.i %                                     ",
"                                  . o | X.X. .; . . } ..o.O.t .                                     ",
"                                  . . } X...X.q . X 9 { { w . X                                     ",
"                                  X . p i = t - . . +.>.-./.+..                                     ",
"                                    . p '.+X^.. - . #.@X&X@X@..                                     ",
"                                      . u ;.u .     . X +.. .                                       ",
"                                          .             .                                           ",
"                                                                                                    "
};
