/* XPM */
static char *_3c12774f8ae4fc7d542ea816a76a7bbDiKozMx83O96T7Ru[] = {
/* columns rows colors chars-per-pixel */
"50 50 195 2 ",
"   c None",
".  c #000000",
"X  c #0A0401",
"o  c #0D0A06",
"O  c #030608",
"+  c #080E08",
"@  c #1D0000",
"#  c #140B05",
"$  c #190807",
"%  c #001B00",
"&  c #131202",
"*  c #191709",
"=  c #00001D",
"-  c #000519",
";  c #161410",
":  c #2C0000",
">  c #240804",
",  c #3D0000",
"<  c #2B150B",
"1  c #36160B",
"2  c #31001F",
"3  c #261A12",
"4  c #163400",
"5  c #2A290C",
"6  c #322F0F",
"7  c #2D2E11",
"8  c #2C2419",
"9  c #33281C",
"0  c #322418",
"q  c #363416",
"w  c #2C351C",
"e  c #061627",
"r  c #00003C",
"t  c #000639",
"y  c #111923",
"u  c #3B0025",
"i  c #002B3C",
"p  c #1A2B3F",
"a  c #1F2729",
"s  c #2B2F32",
"d  c #2C2C2B",
"f  c #440900",
"g  c #401408",
"h  c #501D0E",
"j  c #572C00",
"k  c #5E3800",
"l  c #4A2717",
"z  c #4D2918",
"x  c #442516",
"c  c #522211",
"v  c #552E1C",
"b  c #5B2C1A",
"n  c #5D391B",
"m  c #623900",
"M  c #67341F",
"N  c #401026",
"B  c #433323",
"V  c #4A3827",
"C  c #5C3420",
"Z  c #54392D",
"A  c #643622",
"S  c #693621",
"D  c #6B3B25",
"F  c #733F27",
"G  c #4F4F1D",
"H  c #6C4200",
"J  c #774C10",
"K  c #5A432E",
"L  c #59592B",
"P  c #4B4622",
"I  c #764129",
"U  c #7C442B",
"Y  c #644B34",
"T  c #654036",
"R  c #6E543A",
"E  c #795B3F",
"W  c #72543A",
"Q  c #714B3C",
"!  c #5D6123",
"~  c #666529",
"^  c #69692C",
"/  c #626824",
"(  c #706F2E",
")  c #72732C",
"_  c #787930",
"`  c #00004B",
"'  c #00114B",
"]  c #001955",
"[  c #002254",
"{  c #223346",
"}  c #2E444D",
"|  c #234350",
" . c #37474E",
".. c #274261",
"X. c #2C4665",
"o. c #334C6B",
"O. c #334B66",
"+. c #395461",
"@. c #494A49",
"#. c gray26",
"$. c #434F55",
"%. c #4E595E",
"&. c #555555",
"*. c #785B42",
"=. c #784A42",
"-. c #485860",
";. c #556167",
":. c #606B71",
">. c #7D7C7C",
",. c gray39",
"<. c #83472D",
"1. c #85492E",
"2. c #864B30",
"3. c #894C30",
"4. c #91622D",
"5. c #807F2F",
"6. c #996935",
"7. c #825E44",
"8. c #816042",
"9. c #8B6648",
"0. c #956D47",
"q. c #996752",
"w. c #9C7552",
"e. c #A67D58",
"r. c #A97F59",
"t. c #A57B54",
"y. c #A1754C",
"u. c #7F8331",
"i. c #79822B",
"p. c #878935",
"a. c #969B3B",
"s. c #AD8158",
"d. c #B6895F",
"f. c #BA8652",
"g. c #B9844F",
"h. c #A8AA45",
"j. c #ABB044",
"k. c #B6B84B",
"l. c #B68461",
"z. c #BC8E64",
"x. c #B68B63",
"c. c #C28D5A",
"v. c #C49366",
"b. c #C79369",
"n. c #CA9769",
"m. c #CD9A6C",
"M. c #C89464",
"N. c #D39E6D",
"B. c #DCA473",
"V. c #DFA877",
"C. c #D6A371",
"Z. c #E1A66F",
"A. c #E2AA76",
"S. c #E2A778",
"D. c #E4AC79",
"F. c #E8AF7B",
"G. c #E1A677",
"H. c #ECB27D",
"J. c #C5C552",
"K. c #C9CA54",
"L. c #DCDC5D",
"P. c #DEE05D",
"I. c #F6F668",
"U. c #FEFE6C",
"Y. c #FFFF71",
"T. c #EAEA63",
"R. c #757E83",
"E. c #7C8488",
"W. c gray56",
"Q. c #8F8F90",
"!. c #959799",
"~. c #9A9FA3",
"^. c #A7A8A9",
"/. c #AEB2B4",
"(. c #B3B3B3",
"). c #BFBEBE",
"_. c #EFB480",
"`. c #F3B781",
"'. c #F5B982",
"]. c #FDBE86",
"[. c #FDBF89",
"{. c #FFC087",
"}. c #FFC48A",
"|. c #FFC98E",
" X c #FFCD93",
".X c #BBBEC0",
"XX c #CBCCCC",
"oX c #C4C5C6",
"OX c #DCDDDD",
"+X c #E4E3E3",
"@X c #ECECEB",
"#X c #E5E7E8",
"$X c #F0EFEF",
"%X c #F6F6F6",
"&X c #FFFEFE",
/* pixels */
"                                                                                                    ",
"                                                                                                    ",
"                                                                                                    ",
"                                                                                                    ",
"                                                                                                    ",
"                                                                                                    ",
"                                      X . . . . . . . . . .                                         ",
"                                  X . . < z M A D A C l 1 X . . .                                   ",
"                                . . l D U 1.<.1.1.<.1.1.U I A x . . X                               ",
"                              . > D <.<.1.2.2.2.1.1.2.2.3.2.<.<.F l . .                             ",
"                            . < I 1.1.2.I c : . . . . @ f M <.2.<.<.A . .                           ",
"                          . X F 1.2.I : . *.r.m.N.m.m.d.0.V . c 1.2.<.M . X                         ",
"                          . v 1.1.l . w.V.{.|.{.{.|.}.|.|.'.m.W . M 1.1.v O                         ",
"                        . # I 2.: K V.}.}.[.].].].].].].[.{.}.].v.9 1 2.U > .                       ",
"                        . z 3.: R `.}.}.}.].{.{.{.{.{.{.].{.}.{.|.H.K 1 1.v .                       ",
"                      X . I b V `.|.{.D.e.*.'.{.].{.].|.z.*.N.H.{.|.H.8 M I . X                     ",
"                      . 1 U . N.{.b.m . . . M.{.{.].{.}.s.. = B j 0.D.z.. 1.< .                     ",
"                      . C h E }.0.. ^.+X+X).| 0.{.{.}.t.} XX$X@XXX+.M H.V M z .                     ",
"                      . I . v.{.: oX&X&X&X&X@Xe B.|.A.- +X&X&X&X&X#X0 H.w., n .                     ",
"                      . D . D.A.$.&X@X&.oX&X&XE.g. Xf.:.&XOXd /.&X&X-.N.x.@ C O                     ",
"                      . v 3 `.Z.%.&XOX. W.&X&XR.f. Xc.;.&X+X. /.&X%X .B.z.@ C .                     ",
"                      # . . H.'.. XX&X%X&X&XOX. F.|.H.. XX&X&X&X&XoX@ {.s.. l .                     ",
"                      . *.B N.|.b.. !.OX#X.Xi s.S.].|.v.. ~.OX+X/.. M.|.*.; o .                     ",
"                      . b.w.t.}.{.F.6.k n H N.V.V z.s.|.A.4.k n J B.|.H.B N.V .                     ",
"                      . W t.B '.{.{.|.{.].{.|.V.O . d.}.{.}.{.].}.{.|.r.Y C.# .                     ",
"                        . . . r.|.].].{.{.{.{.|.A.V.|.}.}.{.{.{.].}.D.o 0 . .                       ",
"                            # . v.}.{.{.{.{.'.V.m.m.b.m.H.{.{.].}.`.K . . .                         ",
"                              X . x.}.}.}.m.3 Z E 7.8.Y 9 V.|.}.B.N % #                             ",
"                              O 5 4 Q C.{.`.D.{.|.|.|.}.'.{.H.r.7 J.L.. *                           ",
"                              . _ I.a.. Z q.b.G.S.D.S.B.l.=.q . _ j.p.O .                           ",
"                            5 . J.Y.h.5.P.h.i.! L ~ ! / p.k.T._ 2 q.. .                             ",
"                            O 7 L.I.( k.U.U.U.U.U.U.U.U.U.Y.Y.u.T C.* .                             ",
"                            . & + G . J.Y.U.U.U.U.U.U.U.U.U.U.h.. . .                               ",
"                              . 9.F.7.! I.U.U.U.U.U.U.U.U.U.U.J.. 6                                 ",
"                              . V. X{.u K.U.I.U.U.U.U.U.U.U.U.J..                                   ",
"                              . y.].F.V w L L ^ ~ ^ _ p.u.) G q .                                   ",
"                              . . Y 0 . - ' [ t . . O ` ` ] t . O                                   ",
"                                * . . . ,.@.d @.& & a O.O.O.{ .                                     ",
"                                      . (.%X@X^.. ; y ....X.{ .                                     ",
"                                      . . Q.Q.. . . y X.o.o.p .                                     ",
"                                        ; . . .   X . r r = . X                                     ",
"                                                  . @.>.>.!.&..                                     ",
"                                                  . #.(.+XXX@..                                     ",
"                                                    . . . . .                                       ",
"                                                                                                    ",
"                                                                                                    ",
"                                                                                                    ",
"                                                                                                    ",
"                                                                                                    ",
"                                                                                                    "
};
