/* XPM */
static char *result[] = {
/* columns rows colors chars-per-pixel */
"50 50 121 2 ",
"   c #090908",
".  c #0A0A09",
"X  c #0D0D0B",
"o  c #0E0E0C",
"O  c #0F0F0D",
"+  c #111110",
"@  c #131310",
"#  c #131311",
"$  c #151512",
"%  c #141413",
"&  c #161513",
"*  c #161613",
"=  c #191915",
"-  c #1B1B17",
";  c #1C1C17",
":  c #1B1B18",
">  c #1C1C18",
",  c #1C1C19",
"<  c #1D1D19",
"1  c #1E1F1A",
"2  c #22221D",
"3  c #22221E",
"4  c #23221E",
"5  c #23231E",
"6  c #23231F",
"7  c #24231F",
"8  c #24241F",
"9  c #232320",
"0  c #242420",
"q  c #252520",
"w  c #252521",
"e  c #262621",
"r  c #272622",
"t  c #272722",
"y  c #262623",
"u  c #272723",
"i  c #282822",
"p  c #282823",
"a  c #292923",
"s  c #282824",
"d  c #292924",
"f  c #2A2A24",
"g  c #2A2A25",
"h  c #2B2A25",
"j  c #2C2C26",
"k  c #2D2D28",
"l  c #2E2E28",
"z  c #2F2F29",
"x  c #302F29",
"c  c #30302A",
"v  c #31312A",
"b  c #31302B",
"n  c #32322B",
"m  c #31312C",
"M  c #33332C",
"N  c #32322D",
"B  c #34342D",
"V  c #35342D",
"C  c #35342E",
"Z  c #35352E",
"A  c #36352E",
"S  c #36352F",
"D  c #363630",
"F  c #373731",
"G  c #383731",
"H  c #383832",
"J  c #393832",
"K  c #393932",
"L  c #383833",
"P  c #393833",
"I  c #393933",
"U  c #3A3A33",
"Y  c #3A3A34",
"T  c #3B3B34",
"R  c #3C3C35",
"E  c #3C3C36",
"W  c #3D3C36",
"Q  c #3D3D36",
"!  c #3D3D37",
"~  c #3E3E37",
"^  c #3F3E38",
"/  c #3F3F38",
"(  c #3F3F39",
")  c #41413A",
"_  c #41413C",
"`  c #43423C",
"'  c #43433C",
"]  c #44433D",
"[  c #44443D",
"{  c #45443D",
"}  c #45443E",
"|  c #45453E",
" . c #45453F",
".. c #46453F",
"X. c #46463F",
"o. c #47463F",
"O. c #464640",
"+. c #474640",
"@. c #474740",
"#. c #484741",
"$. c #484841",
"%. c #484842",
"&. c #494842",
"*. c #494943",
"=. c #4A4943",
"-. c #4A4A44",
";. c #4B4A44",
":. c #4B4B44",
">. c #4B4B45",
",. c #4D4D46",
"<. c #4D4D47",
"1. c #4E4E47",
"2. c #4F4E48",
"3. c #504F49",
"4. c #50504A",
"5. c #51514B",
"6. c #52514C",
"7. c #52524D",
"8. c #54544E",
"9. c #575752",
"0. c None",
/* pixels */
"0.0.0.0.0.0.0.0.0.0.0.0.0.0.0.0.0.0.0.0.0.0.0.0.0.0.0.0.0.0.0.0.0.0.0.0.0.0.0.0.0.0.0.0.0.0.0.0.0.0.",
"0.0.0.0.0.0.0.0.0.0.0.0.0.0.0.0.0.0.0.0.0.0.0.0.0.0.0.0.0.0.0.0.0.0.0.0.0.0.0.0.0.0.0.0.0.0.0.0.0.0.",
"0.0.0.0.0.0.0.0.0.0.0.0.0.0.0.0.0.0.0.0.0.0.0.0.0.0.0.0.0.0.0.0.0.0.0.0.0.0.0.0.0.0.0.0.0.0.0.0.0.0.",
"0.0.0.0.0.0.0.0.0.0.0.0.0.0.0.0.0.0.0.0.0.0.0.0.0.0.0.0.0.0.0.0.0.0.0.0.0.0.0.0.0.0.0.0.0.0.0.0.0.0.",
"0.0.0.0.0.0.0.0.0.0.0.0.0.0.0.0.0.0.0.0.0.0.0.0.0.0.0.0.0.0.0.0.0.0.0.0.0.0.0.0.0.0.0.0.0.0.0.0.0.0.",
"0.0.0.0.0.0.0.0.0.0.0.0.0.0.0.0.0.0.0.0.0.0.0.0.0.0.0.0.0.0.0.0.0.0.0.0.0.0.0.0.0.0.0.0.0.0.0.0.0.0.",
"0.0.0.0.0.0.0.0.0.0.0.0.0.0.0.0.0.0.0.0.0.0.0.0.0.0.0.0.0.0.0.0.0.0.0.0.0.0.0.0.0.0.0.0.0.0.0.0.0.0.",
"0.0.0.0.0.0.0.0.0.0.0.0.0.0.0.0.0.0.0.0.0.0.0.0.0.0.0.0.0.0.0.0.0.0.0.0.0.0.0.0.0.0.0.0.0.0.0.0.0.0.",
"0.0.0.0.0.0.0.0.0.0.0.0.0.0.0.0.0.0.0.0.0.0.0.0.0.0.0.0.0.0.0.0.0.0.0.0.0.0.0.0.0.0.0.0.0.0.0.0.0.0.",
"0.0.0.0.0.0.0.0.0.0.0.0.0.0.0.0.0.0.0.0.0.0.0.0.0.0.0.0.0.0.0.0.0.0.0.0.0.0.0.0.0.0.0.0.0.0.0.0.0.0.",
"0.0.0.0.0.0.0.0.0.0.0.0.0.0.0.0.0.0.0.0.0.0.0.0.0.0.0.0.0.0.0.0.0.0.0.0.0.0.0.0.0.0.0.0.0.0.0.0.0.0.",
"0.0.0.0.0.0.0.0.0.0.0.0.0.0.0.0.0.0.0.0.0.0.0.0.0.0.0.0.0.0.0.0.0.0.0.0.0.0.0.0.0.0.0.0.0.0.0.0.0.0.",
"0.0.0.0.0.0.0.0.0.0.0.0.0.0.0.0.0.0.0.0.0.0.0.0.0.0.0.0.0.0.0.0.0.0.0.0.0.0.0.0.0.0.0.0.0.0.0.0.0.0.",
"0.0.0.0.0.0.0.0.0.0.0.0.0.0.0.0.0.0.0.0.0.0.0.0.0.0.0.0.0.0.0.0.0.0.0.0.0.0.0.0.0.0.0.0.0.0.0.0.0.0.",
"0.0.0.0.0.0.0.0.0.0.0.0.0.0.0.0.0.0.0.0.0.0.0.0.0.0.0.0.0.0.0.0.0.0.0.0.0.0.0.0.0.0.0.0.0.0.0.0.0.0.",
"0.0.0.0.0.0.0.0.0.0.0.0.0.0.0.0.0.0.;.+..... .X.X.X.O.X.#.0.0.0.0.0.0.0.0.0.0.0.0.0.0.0.0.0.0.0.0.0.",
"0.0.0.0.0.0.0.0.0.0.0.0.0.0.0.0.6.$.[ { } [ [ [ [ [ [ [ | I 0.0.0.0.0.0.0.0.0.0.0.0.0.0.0.0.0.0.0.0.",
"0.0.0.0.0.0.0.0.0.0.0.0.0.0.0.5.#.[ [ [ [ [ [ [ [ [ [ } | Y -.%.0.0.0.0.0.0.0.0.0.0.0.0.0.0.0.0.0.0.",
"0.0.0.0.0.0.0.0.0.0.0.0.0.0.*.,.| [ [ [ [ [ [ [ [ [ [ ] P (  .[ -.0.0.0.0.0.0.0.0.0.0.0.0.0.0.0.0.0.",
"0.0.0.0.0.0.0.0.0.0.0.0.0.0.: w ( [ } [ [ [ [ [ } ] ^ I ) ' [ [ [ &.0.0.0.0.0.0.0.0.0.0.0.0.0.0.0.0.",
"0.0.0.0.0.0.0.0.0.0.0.0.0.=.R N D ' } } [ [ [ [ } ) ( ' [ [ [ [ [ } | | ..0.0.0.0.0.0.0.0.0.0.0.0.0.",
"0.0.0.0.0.0.0.0.0.0.0.0.0...[ [ [ [ [ [ [ [ [ [ [ [ [ [ [ [ [ [ [ [ [ } { [ X.0.0.0.0.0.0.0.0.0.0.0.",
"0.0.0.0.0.0.0.0.0.0.0.0.8.@.[ [ [ [ [ [ [ [ [ [ [ [ [ [ [ [ [ [ [ [ [ [ [ [ ' 0.0.0.0.0.0.0.0.0.0.0.",
"0.0.0.0.0.0.0.0.0.0.0.0.9.>.} } } [ [ [ [ [ [ [ [ [ [ [ [ [ [ [ [ [ [ [ [ | ' 0.0.0.0.0.0.0.0.0.0.0.",
"0.0.0.0.0.0.0.0.0.0.0.0.7.1.=...} [ [ [ [ [ [ [ [ [ [ [ [ [ [ [ [ [ [ [ [ [ ' 0.0.0.0.0.0.0.0.0.0.0.",
"0.0.0.0.0.0.0.0.0.0.0.0.0.Q ;.5.:.| } [ [ [ [ [ [ [ [ [ [ } [ [ [ [ [ [ [ [ X.0.0.0.0.0.0.0.0.0.0.0.",
"0.0.0.0.0.0.0.0.0.0.0.0.0.H V U $.3.<.@.} [ [ [ [ [ ` / } } } [ [ [ [ [ [ } &.0.0.0.0.0.0.0.0.0.0.0.",
"0.0.0.0.0.0.0.0.0.0.0.0.0.! B B Z T | 4.2.o.} [ [ { L F } } } } } [ [ [ [ | 0.0.0.0.0.0.0.0.0.0.0.0.",
"0.0.0.0.0.0.0.0.0.0.0.0.0.0.Z B B B B A W =.=.$.| _ , H I m $ u z b D Y ~  .0.0.0.0.0.0.0.0.0.0.0.0.",
"0.0.0.0.0.0.0.0.0.0.0.0.0.0.S B B B B B B C K E ` 9 * t 5 2 o 0 7 3 3 6 a 0.0.0.0.0.0.0.0.0.0.0.0.0.",
"0.0.0.0.0.0.0.0.0.0.0.0.0.0.I B B B B B B B B B T & < 2 2 2 $ 5 2 2 2 5 0.0.0.0.0.0.0.0.0.0.0.0.0.0.",
"0.0.0.0.0.0.0.0.0.0.0.0.0.0.F M B B B B B B B B U # ; 2 2 2 = 6 3 2 5 s 0.0.0.0.0.0.0.0.0.0.0.0.0.0.",
"0.0.0.0.0.0.0.0.0.0.0.0.0.0.0.j B B B B B B B B U + - 2 2 8 < p 4 2 6 0.0.0.0.0.0.0.0.0.0.0.0.0.0.0.",
"0.0.0.0.0.0.0.0.0.0.0.0.0.0.0.t f x c v M B B B J O 1 5 8 7 d r 7 > 0.0.0.0.0.0.0.0.0.0.0.0.0.0.0.0.",
"0.0.0.0.0.0.0.0.0.0.0.0.0.0.0.0.k h t q i n B B G X < 2 8 q e 5 @ % 0.0.0.0.0.0.0.0.0.0.0.0.0.0.0.0.",
"0.0.0.0.0.0.0.0.0.0.0.0.0.0.0.0.0.0.0.0.0.p e t l .   * q d g 3 0.0.0.0.0.0.0.0.0.0.0.0.0.0.0.0.0.0.",
"0.0.0.0.0.0.0.0.0.0.0.0.0.0.0.0.0.0.0.0.0.0.0.0.0.y 0.0.0.0.0.0.0.0.0.0.0.0.0.0.0.0.0.0.0.0.0.0.0.0.",
"0.0.0.0.0.0.0.0.0.0.0.0.0.0.0.0.0.0.0.0.0.0.0.0.0.0.0.0.0.0.0.0.0.0.0.0.0.0.0.0.0.0.0.0.0.0.0.0.0.0.",
"0.0.0.0.0.0.0.0.0.0.0.0.0.0.0.0.0.0.0.0.0.0.0.0.0.0.0.0.0.0.0.0.0.0.0.0.0.0.0.0.0.0.0.0.0.0.0.0.0.0.",
"0.0.0.0.0.0.0.0.0.0.0.0.0.0.0.0.0.0.0.0.0.0.0.0.0.0.0.0.0.0.0.0.0.0.0.0.0.0.0.0.0.0.0.0.0.0.0.0.0.0.",
"0.0.0.0.0.0.0.0.0.0.0.0.0.0.0.0.0.0.0.0.0.0.0.0.0.0.0.0.0.0.0.0.0.0.0.0.0.0.0.0.0.0.0.0.0.0.0.0.0.0.",
"0.0.0.0.0.0.0.0.0.0.0.0.0.0.0.0.0.0.0.0.0.0.0.0.0.0.0.0.0.0.0.0.0.0.0.0.0.0.0.0.0.0.0.0.0.0.0.0.0.0.",
"0.0.0.0.0.0.0.0.0.0.0.0.0.0.0.0.0.0.0.0.0.0.0.0.0.0.0.0.0.0.0.0.0.0.0.0.0.0.0.0.0.0.0.0.0.0.0.0.0.0.",
"0.0.0.0.0.0.0.0.0.0.0.0.0.0.0.0.0.0.0.0.0.0.0.0.0.0.0.0.0.0.0.0.0.0.0.0.0.0.0.0.0.0.0.0.0.0.0.0.0.0.",
"0.0.0.0.0.0.0.0.0.0.0.0.0.0.0.0.0.0.0.0.0.0.0.0.0.0.0.0.0.0.0.0.0.0.0.0.0.0.0.0.0.0.0.0.0.0.0.0.0.0.",
"0.0.0.0.0.0.0.0.0.0.0.0.0.0.0.0.0.0.0.0.0.0.0.0.0.0.0.0.0.0.0.0.0.0.0.0.0.0.0.0.0.0.0.0.0.0.0.0.0.0.",
"0.0.0.0.0.0.0.0.0.0.0.0.0.0.0.0.0.0.0.0.0.0.0.0.0.0.0.0.0.0.0.0.0.0.0.0.0.0.0.0.0.0.0.0.0.0.0.0.0.0.",
"0.0.0.0.0.0.0.0.0.0.0.0.0.0.0.0.0.0.0.0.0.0.0.0.0.0.0.0.0.0.0.0.0.0.0.0.0.0.0.0.0.0.0.0.0.0.0.0.0.0.",
"0.0.0.0.0.0.0.0.0.0.0.0.0.0.0.0.0.0.0.0.0.0.0.0.0.0.0.0.0.0.0.0.0.0.0.0.0.0.0.0.0.0.0.0.0.0.0.0.0.0.",
"0.0.0.0.0.0.0.0.0.0.0.0.0.0.0.0.0.0.0.0.0.0.0.0.0.0.0.0.0.0.0.0.0.0.0.0.0.0.0.0.0.0.0.0.0.0.0.0.0.0."
};
