/* XPM */
static char *_09e897f64cb4b3cf5152f91e8f5d6c2Gq9JiedqAKZRSFJ5[] = {
/* columns rows colors chars-per-pixel */
"50 50 168 2 ",
"   c None",
".  c #04000C",
"X  c #00001F",
"o  c #030024",
"O  c #06002F",
"+  c #070341",
"@  c #1B175A",
"#  c #0C0E70",
"$  c #2C2E85",
"%  c #0B07A7",
"&  c #0A06AF",
"*  c #110AA7",
"=  c #1004AE",
"-  c #1611AE",
";  c #1A14B4",
":  c #211DBF",
">  c #3535AB",
",  c #2522BE",
"<  c #2A27B8",
"1  c #2C29B8",
"2  c #3535B0",
"3  c #4345AC",
"4  c #1915C1",
"5  c #1C1AC5",
"6  c #281CC0",
"7  c #2824C2",
"8  c #2B23CE",
"9  c #302CC8",
"0  c #3B38C2",
"q  c #3939CD",
"w  c #2724D5",
"e  c #2D26D3",
"r  c #2C2AD5",
"t  c #2B26DB",
"y  c #2D2ADB",
"u  c #2622DB",
"i  c #322AD6",
"p  c #3027DE",
"a  c #322BDB",
"s  c #2D31DA",
"d  c #3030D1",
"f  c #3333DD",
"g  c #3933DE",
"h  c #2C27E5",
"j  c #2E2BE3",
"k  c #2C27E8",
"l  c #2D2DE9",
"z  c #332CE3",
"x  c #382FE5",
"c  c #342EEC",
"v  c #382FEC",
"b  c #3632E4",
"n  c #3C35E6",
"m  c #3B3BE5",
"M  c #3631EE",
"N  c #3B33ED",
"B  c #3D3AEC",
"V  c #2F2FF0",
"C  c #352FF2",
"Z  c #382FF3",
"A  c #3531F2",
"S  c #3A31F2",
"D  c #3C38F1",
"F  c #3C33FA",
"G  c #413EC5",
"H  c #4238C9",
"J  c #423EDA",
"K  c #423AE3",
"L  c #413AEE",
"P  c #4235EB",
"I  c #4134F0",
"U  c #433DF3",
"Y  c #413CF8",
"T  c #3940D2",
"R  c #4B46C3",
"E  c #4C4FC1",
"W  c #4F4CC8",
"Q  c #5552CE",
"!  c #5B53CF",
"~  c #544CD6",
"^  c #534DD8",
"/  c #5F59D7",
"(  c #5552DB",
")  c #5956DB",
"_  c #5C59DC",
"`  c #625DD0",
"'  c #605CDB",
"]  c #6264C8",
"[  c #757BCF",
"{  c #6967D1",
"}  c #6C6AD9",
"|  c #6864D8",
" . c #7573D4",
".. c #4E4CE3",
"X. c #4442EC",
"o. c #4941EE",
"O. c #4C48EC",
"+. c #4541E3",
"@. c #584DE3",
"#. c #504CEB",
"$. c #5A4FE8",
"%. c #5A57E3",
"&. c #5C58E4",
"*. c #5252E8",
"=. c #5854EE",
"-. c #5B58ED",
";. c #5552E1",
":. c #4F4DF4",
">. c #4B47FB",
",. c #4D4BFC",
"<. c #524CF2",
"1. c #524EFF",
"2. c #5652F5",
"3. c #5E5AF6",
"4. c #5450FF",
"5. c #5A56FD",
"6. c #5D5AFD",
"7. c #625FF4",
"8. c #615DFE",
"9. c #5E62FF",
"0. c #6360E5",
"q. c #6966E9",
"w. c #6366F0",
"e. c #6661FC",
"r. c #7473F4",
"t. c #7F7FF8",
"y. c #827CF2",
"u. c #8884E7",
"i. c #8888E1",
"p. c #8F8BEE",
"a. c #9593ED",
"s. c #9D99EA",
"d. c #8083FB",
"f. c #8A8AF4",
"g. c #9292FF",
"h. c #959CFF",
"j. c #9D9BF8",
"k. c #9492F3",
"l. c #A19EE0",
"z. c #A09CF4",
"x. c #A3A2EF",
"c. c #AAACFF",
"v. c #ACA9F3",
"b. c #B2AFF2",
"n. c #A5B2FF",
"m. c #BAB7F6",
"M. c #B3BFFF",
"N. c #B2C2FF",
"B. c #B7C9FF",
"V. c #BCCAFE",
"C. c #C1C0F4",
"Z. c #C3C4FC",
"A. c #C6CBFF",
"S. c #CDCDFF",
"D. c #C2D4FF",
"F. c #CDD0FF",
"G. c #D2D5FF",
"H. c #D3DBFF",
"J. c #D9DEFF",
"K. c #D5E1FF",
"L. c #DCE6FF",
"P. c #DFE8FF",
"I. c #E7EEFF",
"U. c #E3EBFF",
"Y. c #EDF2FF",
"T. c #F1F4FF",
"R. c #F7F9FF",
"E. c #FAFAFF",
/* pixels */
"                                                                                                    ",
"                                                                                                    ",
"                                                                                                    ",
"                                                                                                    ",
"                                                                                                    ",
"                                                                                                    ",
"                                                                                                    ",
"                                                                                                    ",
"                                        B.%.q , q d.N.                                              ",
"                                    M.5 m :.2.8.6.2.X.5 r.                                          ",
"                                  1 X.,.7.Z.L.a.e.3.8.Y N ,                                         ",
"                                f.N 5.' y.T.R.I.-.6.6.6.M M 0 I.                                    ",
"                              c.X.4.k.Y. .T.Y.y.8.8.6.5.B S N G                                     ",
"                              5 A 6.g.V.7.;.%.8.e.8.6.5.D S A U U.                                  ",
"                            U.V U 6.e.e.8.8.8.8.8.6.6.5.S S S M R                                   ",
"                            r.A ,.6.6.6.8.8.8.8.8.6.8.X.N S N M D H.                                ",
"                            : A o.6.6.6.6.6.6.8.8.5.,.v Z Z N Z S R                                 ",
"                          K.f A C 5.5.9.] 7.8.6.8.U v S S Z I Z S z                                 ",
"                          D.m C A ,.9.3 O ) 8.6.1.Z Z S S Z Z v S F                                 ",
"                          h.B A F X.3 o @ _ O.Z c Z Z S S Z Z Z S F L.                              ",
"                          r.N w B 2 o W B c Z A S Z S Z S Z S Z C S y.                              ",
"                          0.B - Q . $ S S Z Z C Z Z Z Z Z Z Z Z Z S 7                               ",
"                          ^ D 1 + E.X c S Z Z Z Z Z Z Z Z Z Z Z Z Z 5 U.                            ",
"                          ~ F D @.R.X c A F Z Z Z Z Z Z Z Z Z Z C S U n.                            ",
"                          ^ S A J o # ,.c S Z Z Z Z Z Z Z Z Z Z C C c 9                             ",
"                          Q L N N H P m j C C A S Z Z S S Z Z S Z S A b                             ",
"                          > & S S S I S S S N N A S S S Z S S Z S S M M 7 p.v.x.s.m.                ",
"                          =.K L A r 6 P N B 4 4 S S S S S Z S S S S A A h k M z l l F.              ",
"                        A.o.c - U e z = n 6 B N % A Z S Z S Z S S S M A c h a y a t g.              ",
"                  H.H.j.r Z S n ; v S U * 8 c Z N t A A S Z S Z S S A M A c t j y z ~               ",
"                l.s f j a S D Z S S S I U I Z Z N N M C S Z S Z S S A M A A y y f a K !             ",
"                b.d y y b S S S D S S S S S N Z v Z C A Z S Z S S S A M A S j j y y y y [           ",
"                  | r r a D D N N N S S N Z Z v S C C S Z Z Z S Z S S A A M t j t a z y T P.        ",
"                  H.+.y y z x x z t p S S v Z Z S N c z v C v Z S Z C A M M t y a a a y ..Y.        ",
"                  M.i y a a x a a a a M S Z S Z Z c z t z z v v S A S N M z y a y y y r `           ",
"                  7 s y a a a a a a a a x N N j y a a a a a p p z v v z j y r a r w L &.            ",
"              U.; r y y y a a a i a i i p j a a a p a a p a a a a a g a a a y a _ u.Z.              ",
"              } k t r r a i i i y a a i i a a p a a a p a p p a a a i a i p r '                     ",
"              _ h r a y i a a a a a a a a p a a a r p i a a i i a i a i i a ( I.                    ",
"              { g y r r g a e r r i a a a a a p a z a p a e i e a x a a a a z.                      ",
"              G.w.m y y i a g +.#.=.<.a a a a a y a a a ..q.) ..<.<.O.O.2.'                         ",
"                  } %.7.=.*.' H.    a.:.w t a a y u n { J.      J.Z.C.C.P.                          ",
"                      S.J.I.          x.) 3.3.3.3._ i.                                              ",
"                                          U.U.L.U.                                                  ",
"                                                                                                    ",
"                                                                                                    ",
"                                                                                                    ",
"                                                                                                    ",
"                                                                                                    ",
"                                                                                                    "
};
