/* XPM */
static char *f5b129a1bc6044d3b6f2884c09a1cebcaT5XMF9KHSh3D2hV[] = {
/* columns rows colors chars-per-pixel */
"50 50 181 2 ",
"   c None",
".  c #000512",
"X  c #000123",
"o  c #030029",
"O  c #060038",
"+  c #08003A",
"@  c #151C48",
"#  c #1A1C53",
"$  c #000966",
"%  c #050075",
"&  c #090082",
"*  c #1C169C",
"=  c #322B8B",
"-  c #34308D",
";  c #262196",
":  c #33319D",
">  c #1312A9",
",  c #1818AB",
"<  c #1A16BC",
"1  c #211AAF",
"2  c #221EBC",
"3  c #2623AF",
"4  c #332FA5",
"5  c #2523B5",
"6  c #2522BC",
"7  c #2E27B4",
"8  c #3021BD",
"9  c #3B35B8",
"0  c #4947A6",
"q  c #4843AD",
"w  c #5550BB",
"e  c #1B19C4",
"r  c #1E1ACA",
"t  c #1C18D1",
"y  c #1F1ADB",
"u  c #201CC1",
"i  c #231FCD",
"p  c #211DD1",
"a  c #2420C1",
"s  c #2020C8",
"d  c #2D29CE",
"f  c #2925CC",
"g  c #3733C8",
"h  c #2B26D4",
"j  c #2D29D5",
"k  c #2B26D9",
"l  c #2E2ADB",
"z  c #322DD6",
"x  c #322BDC",
"c  c #392CDC",
"v  c #3634D1",
"b  c #3D3BD4",
"n  c #3532DC",
"m  c #3A34DF",
"M  c #3B3ADA",
"N  c #2D2DEA",
"B  c #2E2EE1",
"V  c #332DE4",
"C  c #382EE5",
"Z  c #342EED",
"A  c #382FEF",
"S  c #3632E3",
"D  c #3B34E4",
"F  c #3D39E4",
"G  c #3632ED",
"H  c #3A33ED",
"J  c #332EF2",
"K  c #382FF1",
"L  c #342FFC",
"P  c #3631F2",
"I  c #3A31F2",
"U  c #3D39F6",
"Y  c #3737FA",
"T  c #3A35FA",
"R  c #3D3AFC",
"E  c #4038DD",
"W  c #4437EF",
"Q  c #403CED",
"!  c #413DE4",
"~  c #433BF2",
"^  c #483FF5",
"/  c #403BF8",
"(  c #4134F0",
")  c #4645C4",
"_  c #4B45C7",
"`  c #4E4ACE",
"'  c #5C5DC2",
"]  c #5451CD",
"[  c #4B44D4",
"{  c #504DD9",
"}  c #5956D0",
"|  c #5E5BD3",
" . c #5650DB",
".. c #5D5ADE",
"X. c #645DDB",
"o. c #605AD2",
"O. c #6F6DC1",
"+. c #6361C4",
"@. c #7B77CF",
"#. c #6461D5",
"$. c #6C6BD5",
"%. c #6C69D8",
"&. c #736BDB",
"*. c #4F47EC",
"=. c #514DE9",
"-. c #5A54E3",
";. c #5C59E4",
":. c #5A57E9",
">. c #5E5BEC",
",. c #4644F3",
"<. c #4A41F6",
"1. c #4D48F9",
"2. c #5149F6",
"3. c #544CFC",
"4. c #5A56F1",
"5. c #5C5AF4",
"6. c #5653FD",
"7. c #5C54FB",
"8. c #5D59FE",
"9. c #625DE2",
"0. c #655EEC",
"q. c #615EF5",
"w. c #615BFD",
"e. c #6454FF",
"r. c #6C67EC",
"t. c #6865EE",
"y. c #7D7DE2",
"u. c #7978E6",
"i. c #6562F7",
"p. c #6561FD",
"a. c #6969F8",
"s. c #6C65F8",
"d. c #716BF0",
"f. c #817CE6",
"g. c #817EF8",
"h. c #8988C5",
"j. c #8484DC",
"k. c #8888DE",
"l. c #9796DC",
"z. c #B0ADDA",
"x. c #8787ED",
"c. c #8C8CEB",
"v. c #9F9FEC",
"b. c #9795E5",
"n. c #8987F1",
"m. c #8784FE",
"M. c #8885FF",
"N. c #8888FF",
"B. c #9F9BFE",
"V. c #A19FEC",
"C. c #A19DFD",
"Z. c #9BA0FF",
"A. c #9DABFF",
"S. c #A4A4FF",
"D. c #ABA9FE",
"F. c #B0AEFF",
"G. c #A5B4FF",
"H. c #ABB5FF",
"J. c #AFBEFE",
"K. c #AAB1F6",
"L. c #B7B2F8",
"P. c #BBBAFD",
"I. c #B9B5F6",
"U. c #B6C0FF",
"Y. c #BCC4FE",
"T. c #BCCCFF",
"R. c #C2C3FF",
"E. c #C3C9FF",
"W. c #C4D6FF",
"Q. c #CED1FF",
"!. c #CDDCFF",
"~. c #D1D7FF",
"^. c #D2DDFF",
"/. c #DBDCFF",
"(. c #D6E2FE",
"). c #DBE6FF",
"_. c #DFE8FF",
"`. c #E5EDFF",
"'. c #EAF0FF",
"]. c #F2F6FF",
"[. c #FAFFF9",
/* pixels */
"                                                                                                    ",
"                                                                                                    ",
"                                                                                                    ",
"                                                                                                    ",
"                                                        _.!.W.(.                                    ",
"                                                  U.>.< f M M v < { H.                              ",
"                                              ^.8 W G 1.4.:.p.:.=.,.~ g (.                          ",
"                                            ` E ~ v 6.5.^.'.@.].].;.8.H d                           ",
"                                        ).6 I U F $ a.w.N.T.f.[.[.`.>.w.G 3                         ",
"                                      `.n U Z I F + d.w.w.q.p.Y.`.Z.5.w.8./ n.                      ",
"                                    `.5 I G I I U + r.s.s.i.w.q.t.7.8.e.8.P r                       ",
"                                    5 G G G _ q - . @ X o % 5.w.8.8.8.8.w.V T                       ",
"                                  C.G I G Z & * 7 # +.r.r.i.q.w.7.w.8.7.8.Z P ^.                    ",
"                            :   (.S p t U Z F H W = 9 e.w.7.7.w.w.w.w.8.6.G G G.                    ",
"                            /.  h.] `.W.I G L P K 0 ; U <.8.8.8.w.8.8.3.P J G N.                    ",
"                      S.U.            (.U 5 T.r H ) % ,.n H ,.<.1.^ D G I P H g.                    ",
"                      O.l.              P.    u I ~ / 6.Z I I H I I I I K P G M.                    ",
"                                              v V Y.u.Y I I I I I I I K K P G A.                    ",
"                            z.                y._.    V U I I K K I P K P P J W.                    ",
"                                                      9 I I K I I K I P K P T `.                    ",
"                                                      u.I I I I K I K K P J R                       ",
"                                                      R.T I K I I K I P P P p                       ",
"                                                      '.p K K I K I I P P J ]                       ",
"                                                        6 J J J I I J P P P ^.                      ",
"                            4       5 v.                ` J Z J K K K I I _                         ",
"                            ,.D.  P.G )     7 '         y.T J I T K K I P `.                        ",
"                            Q a _.6 G h   Y.G U         F.T I I K I K K r                           ",
"                            F P y P G T 0.d U P (.      P.P I I K K K / D _.                        ",
"                            D G P P P I I K I I [       E.P I I K K K I I r X.P.^.`.                ",
"                            S G P G P I K I I I ~       E.P I I T K K K K Z P Y N s > w L.          ",
"                            i Z I I G I I K I H I |     E.P I I I I P K I U H S j n c n l ' '.      ",
"                      b.4 , H J I I I I K I K I I T _   X.T I I K I K P K V B l l j x l x N k.      ",
"                    %.S x l H I I I K I I K K I I I T r ( I I I I I K I P V l l x l x l l k '       ",
"                    S.F l l H I I I I K K I K K I I ( I I I I I I I I K J l l x l x l l n b P.      ",
"                    `.2 x l H I K I I I I K I K I I I I I I I I K I K P G x c l x n l b t.^.        ",
"                `.j.> h n c U I I I I P P G G H A A H I I I I I I I I T S n l x l l l !.            ",
"                ) , F c x c H H H K I P H C Z V x V C K K K I I I K K Z V c x l x l S               ",
"            B.1 j j c c c c c V V C C V l k l k x x x C A K K K I I K V x x l x l k <               ",
"            M x m c c c c c x x x l l l x x c c c x x x V V C C V c k x z x x l x j <               ",
"          V.c x c C V x x c V c c x x c x x c x x x x x c x x x x x c x x x l x B j h               ",
"          P.z x l j j l l l k k l l c x x l x x x x x x x x l k k j z h h l x l n k B               ",
"            X.7.h h h j l n S S D D k k x x l x x x x l x l l l =.X.&.X.-.*.n j j j 4.              ",
"              P.$.#.#.#.&.k.V.V.c.u.9.7.k x x x x x x l l l j X.Q.        R.x...;.| I.              ",
"                                      P.q.D x x c x x x k V 0.                                      ",
"                                        ^.| w.1.C h x F 2.#.'.                                      ",
"                                            P.b.| -. .u.K.                                          ",
"                                                                                                    ",
"                                                                                                    ",
"                                                                                                    ",
"                                                                                                    "
};
