/* XPM */
static char *cf08d4ccf75b41ace2047d6cc751958bTpsqif0eoLVlTJRB[] = {
/* columns rows colors chars-per-pixel */
"50 50 219 2 ",
"   c None",
".  c #010101",
"X  c #0B0C0D",
"o  c #070B13",
"O  c #171718",
"+  c #1B1B0B",
"@  c #231E11",
"#  c #3E3D1B",
"$  c #040426",
"%  c #141A28",
"&  c #070039",
"*  c #2D3336",
"=  c #142333",
"-  c #463F38",
";  c #3A4029",
":  c #544F2A",
">  c #75593D",
",  c #685335",
"<  c #716D32",
"1  c #1A1B4C",
"2  c #1E334B",
"3  c #1A2B40",
"4  c #263550",
"5  c #050075",
"6  c #000966",
"7  c #2C2B78",
"8  c #274261",
"9  c #474B4F",
"0  c #6C5D51",
"q  c #6A5A4B",
"w  c #6D6257",
"e  c #707070",
"r  c #BE060D",
"t  c #BD0D14",
"y  c #BE3135",
"u  c #CB050E",
"i  c #C5050F",
"p  c #D3050F",
"a  c #CA0812",
"s  c #D80A14",
"d  c #C9151D",
"f  c #D7151A",
"g  c #E40513",
"h  c #E90717",
"j  c #E40915",
"k  c #ED091A",
"l  c #E70B18",
"z  c #F30A1E",
"x  c #E5151C",
"c  c #CA1A23",
"v  c #D71C20",
"b  c #F70B21",
"n  c #FC0C25",
"m  c #E81B24",
"M  c #F21D29",
"N  c #CB222A",
"B  c #D52625",
"V  c #C83138",
"C  c #D73636",
"Z  c #D62D33",
"A  c #E72B2C",
"S  c #E93937",
"D  c #E72F31",
"F  c #E83E43",
"G  c #95704E",
"H  c #9A7957",
"J  c #8B6E4B",
"K  c #A07A54",
"L  c #C64349",
"P  c #DA4B51",
"I  c #CA565B",
"U  c #D54B51",
"Y  c #E74549",
"T  c #E54E52",
"R  c #EA4E53",
"E  c #E65358",
"W  c #E85156",
"Q  c #CC5F63",
"!  c #E75C61",
"~  c #DB656B",
"^  c #CB7577",
"/  c #D8767B",
"(  c #D36A6E",
")  c #EB6469",
"_  c #E3777C",
"`  c #8D8D3D",
"'  c #9D9A44",
"]  c #AE845D",
"[  c #BCBC50",
"{  c #A2A145",
"}  c #BD8F65",
"|  c #C79669",
" . c #DAA473",
".. c #E6AD7A",
"X. c #E1E15F",
"o. c #FEFE6C",
"O. c #EDED64",
"+. c #130B8F",
"@. c #2E2995",
"#. c #1514AA",
"$. c #1A16BC",
"%. c #221EBC",
"&. c #211AAF",
"*. c #332FA5",
"=. c #2422BD",
"-. c #2925B5",
";. c #3933B6",
":. c #2B22B6",
">. c #4B48B3",
",. c #1D1AC8",
"<. c #1E19D6",
"1. c #221EC7",
"2. c #211DD1",
"3. c #2825C9",
"4. c #3633CA",
"5. c #2C29D6",
"6. c #2D2ADB",
"7. c #2A26D8",
"8. c #322CDC",
"9. c #392CDC",
"0. c #322ED6",
"q. c #3736D8",
"w. c #2F2DD0",
"e. c #2D2DE7",
"r. c #332DE4",
"t. c #382DE4",
"y. c #342EEC",
"u. c #382FEF",
"i. c #3632ED",
"p. c #3A34ED",
"a. c #3A35E4",
"s. c #332EF2",
"d. c #382FF1",
"f. c #342FFC",
"g. c #3631F2",
"h. c #3A31F2",
"j. c #3D39F6",
"k. c #3A35FA",
"l. c #3B39FB",
"z. c #2F2FF0",
"x. c #4236D7",
"c. c #423BEB",
"v. c #433BF2",
"b. c #433AF4",
"n. c #4946C7",
"m. c #5958C6",
"M. c #5C59D8",
"N. c #4E49D7",
"B. c #645EDA",
"V. c #6967C3",
"C. c #6F6BD6",
"Z. c #5C58E8",
"A. c #4A45F8",
"S. c #5C5AF4",
"D. c #5D5AFE",
"F. c #5A55FA",
"G. c #534DF3",
"H. c #615BFD",
"J. c #625AF8",
"K. c #625FE0",
"L. c #6A66ED",
"P. c #7A78E5",
"I. c #6864F9",
"U. c #7471F4",
"Y. c #E87F83",
"T. c #817DEF",
"R. c #9A9998",
"E. c #96908C",
"W. c #98A0B6",
"Q. c #AAAAAC",
"!. c #B6B6B6",
"~. c #D79193",
"^. c #E58E91",
"/. c #FCBD85",
"(. c #F2B680",
"). c #DDAAAA",
"_. c #CEBAAB",
"`. c #E9A4A7",
"'. c #E4BCBC",
"]. c #EAB7BA",
"[. c #F2B7B9",
"{. c #F3AAAD",
"}. c #FFC087",
"|. c #8685D7",
" X c #908FD1",
".X c #9C9AE7",
"XX c #8887FA",
"oX c #9997FC",
"OX c #A19EE8",
"+X c #A19DFD",
"@X c #9DA4FA",
"#X c #A4A4EF",
"$X c #A8A8FC",
"%X c #B1AFF9",
"&X c #AAB8FF",
"*X c #BABBFD",
"=X c #B5B9FB",
"-X c #B0ADDA",
";X c #F4BDC0",
":X c #BBC7FF",
">X c #D2D4D7",
",X c #EAC3C4",
"<X c #EBCECF",
"1X c #F1C4C5",
"2X c #F3DEDE",
"3X c #EDD3D4",
"4X c #C4CAFE",
"5X c #C1C4FF",
"6X c #C9D8FF",
"7X c #D2DCFF",
"8X c #D6DAFF",
"9X c #D4D7E0",
"0X c #DAE5FF",
"qX c #F4E4E4",
"wX c #F9E5E5",
"eX c #E5ECFF",
"rX c #FDFEFC",
"tX c #F4F5F9",
"yX c #ECEFF6",
/* pixels */
"                                                                                                    ",
"                                                                                                    ",
"                                                                                                    ",
"                                                                                                    ",
"                                                        0X7X6X0X                                    ",
"                                                  :XZ.,.3.q.a.4.%.N.&X                              ",
"                                              7X:.v.z.A.S.Z.I.Z.G.A.v.4.0X                          ",
"                                            N.x.v.q.F.S.7XtXC.tXtXM.F.j.3.                          ",
"                                        0X=.h.b.c.6 I.J.XX:XT.rXrXeXZ.H.i.-.                        ",
"                                    :X.Xq.h.y.d.a.& U.H.H.J.I.:XeXoXS.J.D.j.XX                      ",
"                                  -.4X-.h.i.u.d.c.& L.H.L.I.J.S.J.J.H.H.D.y.,.                      ",
"                                XXp.=.i.i.h.>.>.@.o 1 o $ 5 S.H.D.D.D.D.H.i.k.                      ",
"                              &XA.@Xi.p.g.y.+.#.:.1 m.L.L.I.S.H.H.H.D.D.D.y.z.7X                    ",
"                            *.4.0Xr.2.<.j.y.t.a.c.@.;.H.D.D.S.D.H.H.H.D.F.i.g.&X                    ",
"                            8Xg.|.m.=X6Xi.i.f.d.b.>.@.d.A.H.D.D.H.H.D.G.g.z.i.XX                    ",
"                      $X:X  U.g.A.D.S.7Xl.-.:X1.u.>.5 A.8.p.b.A.A.b.p.i.h.s.i.XX                    ",
"                      V..X  =.g.a.7 1 7 :X1 >.,.g.v.j.F.y.h.h.h.h.h.h.d.h.d.i.XX                    ",
"                          W.@.3.-.O J , # < % w.e.:XP.k.g.h.h.p.h.h.h.h.g.g.g.@X                    ",
"                        X X -X% o @ > , ` O.: |.0X}...e.h.h.h.h.d.h.h.s.d.g.s.6X                    ",
"                      . 9 4 4 2 % ' [ < : : ] }.}.] 0 ;.j.h.h.h.h.d.h.g.g.s.k.eX                    ",
"                      . e 2 8 8 * O.o.o.' J ..}. .w >XP.k.h.d.h.d.h.h.d.g.g.l.                      ",
"                      * X % 3 2 , o.o.X.J | }.}.] Q.Q.:Xk.i.h.d.h.d.d.g.g.g.2.                      ",
"                      X . . . X ` o.o.{ ] ]  ...J 9X_.9X2.d.d.h.d.h.g.g.g.d.N.                      ",
"                    . - 9 o o + [ o.o.<  .>  ...H !.tXtX%.s.s.d.h.d.h.g.g.g.7X                      ",
"                    O Q.9 4 *.; o.o.-..X..> | > J q E.E.N.z.g.z.h.d.h.g.g.n.                        ",
"                    X e 3 8 A.$Xo.*Xi.n.| J -.m. .(.} ] P.k.g.h.d.h.h.h.s.>X                        ",
"                      X X = a.3.E %.i.5.G 5Xi.b.} } (.}.%Xl.g.h.h.d.h.d.,.|.%X#XOX*X                ",
"                          1 a.j.<.g.g.h.W R j.s.7XE.0  .*Xg.h.h.d.h.h.k.g.0Xa.r.e.e.6X              ",
"                        4X;.a.g.k.i.g.h.d.d.d.u.x.yX!.0 4Xf.h.h.d.h.d.h.k.,.B.=X8X@XXX              ",
"                  7X8XoX5.w.q.g.g.g.g.h.b.d.d.b.v.Q.yX: 4Xg.h.h.h.d.h.d.d.y.g.l.e.1.#.>.=X          ",
"                OX0.8.6.8.P.1.y.i.h.g.h.d.d.d.p.b.m.>Xq 4Xg.h.h.d.h.h.g.h.b.i.r.6.0.9.q.6.m.eX      ",
"                %Xw.6..X*.#.i.d.h.h.h.h.k.d.d.h.d.k.n._.K.h.h.h.h.d.h.s.d.r.r.8.8.8.8.8.8.y.|.      ",
"                  B.C.a.6.6.p.i.h.h.h.d.h.d.h.h.d.d.d.E R d.d.h.h.d.h.d.g.r.6.8.6.8.6.0.6.6.V.      ",
"                  0X$Xa.6.6.p.h.h.h.d.h.d.k.d.d.h.b.k.b.d.b.d.h.d.h.d.h.d.6.6.8.6.8.8.8.8.q.*X      ",
"                  =X@X1.8.8.h.h.d.h.d.h.d.h.d.d.d.E T d.u.d.u.u.h.d.h.h.y.8.8.6.8.8.6.q.K.7X        ",
"                eX|.#.3.8.a.p.h.h.h.h.g.u.i.i.p.u.t.p.d.u.d.b.k.h.h.h.k.a.8.8.8.6.6.6.7X            ",
"              eXn.#.q.8.8.8.p.p.i.i.i.i.i.u.r.t.8.r.t.d.d.h.k.d.d.h.d.h.r.8.8.6.8.6.r.              ",
"            +X&.5.8.9.9.9.9.9.t.t.y.y.r.8.5.5.5.8.8.8.y.u.d.d.d.h.h.h.r.8.9.8.6.8.5.$.              ",
"            q.8.9.9.9.9.9.9.8.9.6.6.8.5.x.Q I L V c d i u u u u u u c c L ~ ^.6.6.5.$.              ",
"          OXt.8.9.t.t.t.8.9.8.I d p g h g g j h h h g h h h l j j g g g g g j g U 6.5.              ",
"          *Xq.9.8.6.6.5.L s g g j l k z z n n n n n n n n n n n n n z h g g g j g _ r.wXY.E T wX    ",
"      <X`.^./ / / ~ c j k k k z n n n n n n n n n n n n n n n n n n n z k k h h T w.S.              ",
"    P g g g g g g g n n n n n n n n n n n n n n n n n n n n n n n n n n n n n n z g g g g g g Y 1X  ",
"  2Xg x l g g j g g h k k k n n n n n n n n z n n n n n n n n z z z b b b b z z g g g g g g g j !   ",
"    ].P C Z C C f s g g g g h z k z M x h g g A x h k z z z l S g f Z C Y R m l A D S F F R R Y ^.  ",
"            wX<X^ d j j g g l A S S A j p u u a x A A A A S S x r ).;X).^ I V N c c c C U ( ^.2X    ",
"  ^.R E [.      ^ V i c B N B p a t y ^ `.,X'.~.~.I L y t r r r y 2XrXrXrX2X;X{.{.[.2X              ",
"                      2X,X'.'.;X3X            {.) R T ) 1X          ;XE l g g g g g A [.            ",
"                                                1X{.`.,X            <X~ Z f f v Z Z Q wX            ",
"                                                                              wX                    "
};
